<svg width="86" height="66" viewBox="0 0 86 66" fill="none" xmlns="http://www.w3.org/2000/svg">
<path d="M15.724 35.1858C15.724 35.1858 22.2396 35.611 22.0176 32.9237C21.7958 30.2364 19.699 29.3261 14.8046 26.5436C9.91028 23.7612 6.77873 15.4065 8.57912 10.1253C8.74831 17.1554 11.6685 20.1634 23.1893 21.2255C23.1893 21.2255 26.8406 25.0019 29.5569 26.1702C32.2734 27.3385 37.746 27.4842 43.1295 26.0655C37.9505 29.1862 35.3357 31.2486 26.8857 30.8192C26.9282 33.0424 26.6287 34.3406 25.5189 36.2442C22.9764 38.1362 21.0073 38.5848 15.2613 36.854C15.2613 36.854 9.67404 40.5558 9.24597 39.6078C8.81816 38.66 12.4597 36.4915 12.4597 36.4915C12.4597 36.4915 6.75626 34.6332 7.13373 33.7705C7.51147 32.9079 13.1004 34.1817 13.1004 34.1817C13.1004 34.1817 11.2738 29.8055 11.9867 29.7268C12.6997 29.6482 15.724 35.1858 15.724 35.1858Z" fill="#08FDD8"/>
<path d="M32.2474 14.4789C32.252 15.9133 29.3216 16.9379 27.6015 19.2709L36.0831 16.0956C36.359 12.9228 35.7616 11.3826 30.9126 9.82454C30.9126 9.82454 32.0582 4.19977 31.6517 3.67242C31.2451 3.14508 29.1011 7.3873 29.1011 7.3873C29.1011 7.3873 26.3763 2.76199 25.464 3.06173C24.5516 3.36147 27.0629 8.75673 27.0629 8.75673C27.0629 8.75673 23.1635 8.36616 22.7645 8.80827C22.3654 9.25038 28.8033 11.4506 29.1882 11.5574C29.5732 11.6642 32.2429 13.0445 32.2474 14.4789Z" fill="#08FDD8"/>
<path d="M59.6452 42.2551C52.7974 37.2801 49.0896 33.4493 42.873 25.9944C50.0543 26.7318 54.0971 28.4297 60.8544 35.4043C64.6395 39.1547 67.1759 40.5419 72.2838 42.0294C67.2391 44.3438 64.4744 44.3336 59.6452 42.2551Z" fill="#08FDD8"/>
<path d="M72.2836 42.0303C67.8708 43.8368 64.799 43.0224 59.6454 42.2549C63.0579 44.577 65.7265 45.7411 71.3582 45.3668C76.9899 44.9925 81.079 39.2184 81.079 39.2184C77.8841 41.2218 75.9359 41.7524 72.2836 42.0303Z" fill="#08FDD8"/>
<path d="M85.5518 28.573C81.452 35.2945 78.4913 38.3816 71.9916 42.0864C75.6104 42.1814 77.5328 41.5224 80.8441 39.5667C84.1249 35.2606 84.7944 32.8571 85.5518 28.573Z" fill="#08FDD8"/>
<path d="M42.8886 30.4213C44.0406 29.3771 44.6544 29.0832 45.6967 29.2654L52.4287 36.3842C52.4287 36.3842 48.1294 33.9476 46.832 34.1408C45.5346 34.3341 50.039 44.0131 48.149 48.3259C47.196 46.8112 47.0063 45.7545 46.7787 43.7999C46.7787 43.7999 44.0211 46.7663 41.9042 47.423C39.7873 48.0796 45.2668 42.275 45.2668 42.275C45.2668 42.275 40.0841 41.5288 40.9038 41.0648C41.7235 40.6008 45.9787 39.7085 45.9787 39.7085C42.0585 35.4856 41.1436 33.3983 42.8886 30.4213Z" fill="#08FDD8"/>
<path d="M9.04495 15.9202C6.73282 11.1972 10.0325 6.3819 10.6522 6.13948C11.2722 5.89714 12.5559 6.25263 14.8945 8.28353C17.2334 10.3142 20.3776 15.5142 23.2254 21.0972C23.4138 22.0997 11.3573 20.6434 9.04495 15.9202Z" fill="#08FDD8"/>
<path d="M49.514 18.9918C44.5184 14.1133 40.3927 13.3059 28.0575 19.121L42.8374 26.1227C52.3511 27.322 55.2012 30.5946 61.0755 35.6037C55.4046 28.7054 53.2302 25.1111 54.5187 20.3799C54.6986 19.4754 59.1951 21.2624 60.8456 22.1348C62.4964 23.0073 68.9578 24.0872 69.2686 23.5037C69.8456 22.42 65.5397 21.502 65.5397 21.502C65.5397 21.502 70.7635 18.114 70.1004 17.5155C69.4372 16.917 64.2414 19.2072 64.2414 19.2072C64.2414 19.2072 65.3448 15.2291 64.4821 14.8516C63.6195 14.4741 62.0318 19.6999 62.0318 19.6999C62.0318 19.6999 55.3505 14.3917 52.9057 15.2338C50.461 16.0759 49.514 18.9918 49.514 18.9918Z" fill="#08FDD8"/>
<path d="M43.0942 26.1939C34.0108 28.7947 29.3752 28.5989 23.0614 21.1902C26.7804 19.4611 28.542 17.8732 33.3612 18.9336C38.1803 19.9941 41.0383 23.1419 43.0942 26.1939Z" fill="#08FDD8"/>
<path d="M15.724 34.1858C15.724 34.1858 22.2396 34.611 22.0176 31.9237C21.7958 29.2364 19.699 28.3261 14.8046 25.5436C9.91028 22.7612 6.77873 14.4065 8.57912 9.12532C8.74831 16.1554 11.6685 19.1634 23.1893 20.2255C23.1893 20.2255 26.8406 24.0019 29.5569 25.1702C32.2734 26.3385 37.746 26.4842 43.1295 25.0655C37.9505 28.1862 35.3357 30.2486 26.8857 29.8192C26.9282 32.0424 26.6287 33.3406 25.5189 35.2442C22.9764 37.1362 21.0073 37.5848 15.2613 35.854C15.2613 35.854 9.67404 39.5558 9.24597 38.6078C8.81816 37.66 12.4597 35.4915 12.4597 35.4915C12.4597 35.4915 6.75626 33.6332 7.13373 32.7705C7.51147 31.9079 13.1004 33.1817 13.1004 33.1817C13.1004 33.1817 11.2738 28.8055 11.9867 28.7268C12.6997 28.6482 15.724 34.1858 15.724 34.1858Z" fill="#FD2155"/>
<path d="M32.2474 13.4789C32.252 14.9133 29.3216 15.9379 27.6015 18.2709L36.0831 15.0956C36.359 11.9228 35.7616 10.3826 30.9126 8.82454C30.9126 8.82454 32.0582 3.19977 31.6517 2.67242C31.2451 2.14508 29.1011 6.3873 29.1011 6.3873C29.1011 6.3873 26.3763 1.76199 25.464 2.06173C24.5516 2.36147 27.0629 7.75673 27.0629 7.75673C27.0629 7.75673 23.1635 7.36616 22.7645 7.80827C22.3654 8.25038 28.8033 10.4506 29.1882 10.5574C29.5732 10.6642 32.2429 12.0445 32.2474 13.4789Z" fill="#FD2155"/>
<path d="M59.6452 41.2551C52.7974 36.2801 49.0896 32.4493 42.873 24.9944C50.0543 25.7318 54.0971 27.4297 60.8544 34.4043C64.6395 38.1547 67.1759 39.5419 72.2838 41.0294C67.2391 43.3438 64.4744 43.3336 59.6452 41.2551Z" fill="#FD2155"/>
<path d="M72.2836 41.0303C67.8708 42.8368 64.799 42.0224 59.6454 41.2549C63.0579 43.577 65.7265 44.7411 71.3582 44.3668C76.9899 43.9925 81.079 38.2184 81.079 38.2184C77.8841 40.2218 75.9359 40.7524 72.2836 41.0303Z" fill="#FD2155"/>
<path d="M85.5518 27.573C81.452 34.2945 78.4913 37.3816 71.9916 41.0864C75.6104 41.1814 77.5328 40.5224 80.8441 38.5667C84.1249 34.2606 84.7944 31.8571 85.5518 27.573Z" fill="#FD2155"/>
<path d="M42.8886 29.4213C44.0406 28.3771 44.6544 28.0832 45.6967 28.2654L52.4287 35.3842C52.4287 35.3842 48.1294 32.9476 46.832 33.1408C45.5346 33.3341 50.039 43.0131 48.149 47.3259C47.196 45.8112 47.0063 44.7545 46.7787 42.7999C46.7787 42.7999 44.0211 45.7663 41.9042 46.423C39.7873 47.0796 45.2668 41.275 45.2668 41.275C45.2668 41.275 40.0841 40.5288 40.9038 40.0648C41.7235 39.6008 45.9787 38.7085 45.9787 38.7085C42.0585 34.4856 41.1436 32.3983 42.8886 29.4213Z" fill="#FD2155"/>
<path d="M9.04495 14.9202C6.73282 10.1972 10.0325 5.3819 10.6522 5.13948C11.2722 4.89714 12.5559 5.25263 14.8945 7.28353C17.2334 9.31424 20.3776 14.5142 23.2254 20.0972C23.4138 21.0997 11.3573 19.6434 9.04495 14.9202Z" fill="#FD2155"/>
<path d="M49.514 17.9918C44.5184 13.1133 40.3927 12.3059 28.0575 18.121L42.8374 25.1227C52.3511 26.322 55.2012 29.5946 61.0755 34.6037C55.4046 27.7054 53.2302 24.1111 54.5187 19.3799C54.6986 18.4754 59.1951 20.2624 60.8456 21.1348C62.4964 22.0073 68.9578 23.0872 69.2686 22.5037C69.8456 21.42 65.5397 20.502 65.5397 20.502C65.5397 20.502 70.7635 17.114 70.1004 16.5155C69.4372 15.917 64.2414 18.2072 64.2414 18.2072C64.2414 18.2072 65.3448 14.2291 64.4821 13.8516C63.6195 13.4741 62.0318 18.6999 62.0318 18.6999C62.0318 18.6999 55.3505 13.3917 52.9057 14.2338C50.461 15.0759 49.514 17.9918 49.514 17.9918Z" fill="#FD2155"/>
<path d="M43.0942 25.1939C34.0108 27.7947 29.3752 27.5989 23.0614 20.1902C26.7804 18.4611 28.542 16.8732 33.3612 17.9336C38.1803 18.9941 41.0383 22.1419 43.0942 25.1939Z" fill="#FD2155"/>
<g style="mix-blend-mode:lighten">
<path d="M15.7272 33.4607C15.7272 33.4607 22.2427 33.8859 22.0207 31.1986C21.799 28.5113 19.7021 27.601 14.8078 24.8185C9.91345 22.0361 6.78191 13.6814 8.58229 8.40023C8.75148 15.4303 11.6717 18.4383 23.1925 19.5004C23.1925 19.5004 26.8437 23.2768 29.56 24.4451C32.2766 25.6134 37.7492 25.7591 43.1327 24.3404C37.9537 27.4611 35.3388 29.5235 26.8888 29.0941C26.9314 31.3173 26.6319 32.6155 25.5221 34.5191C22.9796 36.4111 21.0105 36.8597 15.2645 35.1289C15.2645 35.1289 9.67721 38.8307 9.24914 37.8827C8.82133 36.9349 12.4629 34.7664 12.4629 34.7664C12.4629 34.7664 6.75943 32.9081 7.13691 32.0454C7.51464 31.1828 13.1036 32.4566 13.1036 32.4566C13.1036 32.4566 11.277 28.0804 11.9898 28.0017C12.7029 27.9231 15.7272 33.4607 15.7272 33.4607Z" fill="#FDFDFD"/>
</g>
<g style="mix-blend-mode:lighten">
<path d="M32.2506 12.7538C32.2552 14.1882 29.3248 15.2128 27.6047 17.5458L36.0863 14.3705C36.3621 11.1977 35.7648 9.65748 30.9158 8.09944C30.9158 8.09944 32.0614 2.47468 31.6548 1.94733C31.2483 1.41998 29.1043 5.66221 29.1043 5.66221C29.1043 5.66221 26.3795 1.03689 25.4671 1.33663C24.5548 1.63637 27.0661 7.03164 27.0661 7.03164C27.0661 7.03164 23.1667 6.64106 22.7676 7.08317C22.3686 7.52529 28.8064 9.72552 29.1914 9.8323C29.5764 9.93908 32.246 11.3194 32.2506 12.7538Z" fill="#FDFDFD"/>
</g>
<g style="mix-blend-mode:lighten">
<path d="M59.6484 40.53C52.8005 35.555 49.0928 31.7242 42.8761 24.2693C50.0574 25.0067 54.1003 26.7046 60.8576 33.6792C64.6426 37.4296 67.1791 38.8168 72.287 40.3043C67.2423 42.6188 64.4776 42.6085 59.6484 40.53Z" fill="#FDFDFD"/>
</g>
<g style="mix-blend-mode:lighten">
<path d="M72.2868 40.3052C67.8739 42.1117 64.8022 41.2973 59.6485 40.5298C63.0611 42.8519 65.7297 44.016 71.3614 43.6417C76.9931 43.2674 81.0821 37.4933 81.0821 37.4933C77.8872 39.4967 75.9391 40.0273 72.2868 40.3052Z" fill="#FDFDFD"/>
</g>
<g style="mix-blend-mode:lighten">
<path d="M85.555 26.8479C81.4552 33.5694 78.4945 36.6565 71.9948 40.3613C75.6136 40.4563 77.536 39.7973 80.8473 37.8416C84.1281 33.5355 84.7976 31.132 85.555 26.8479Z" fill="#FDFDFD"/>
</g>
<g style="mix-blend-mode:lighten">
<path d="M42.8918 28.6962C44.0437 27.652 44.6576 27.3581 45.6999 27.5403L52.4318 34.6591C52.4318 34.6591 48.1326 32.2225 46.8352 32.4157C45.5378 32.609 50.0422 42.288 48.1522 46.6008C47.1992 45.0861 47.0094 44.0294 46.7818 42.0748C46.7818 42.0748 44.0243 45.0413 41.9074 45.6979C39.7905 46.3545 45.27 40.5499 45.27 40.5499C45.27 40.5499 40.0873 39.8037 40.907 39.3397C41.7266 38.8757 45.9819 37.9834 45.9819 37.9834C42.0617 33.7605 41.1467 31.6732 42.8918 28.6962Z" fill="#FDFDFD"/>
</g>
<g style="mix-blend-mode:lighten">
<path d="M9.04813 14.1951C6.73599 9.47208 10.0357 4.6568 10.6554 4.41439C11.2754 4.17204 12.5591 4.52753 14.8976 6.55843C17.2365 8.58914 20.3807 13.7891 23.2285 19.3721C23.417 20.3746 11.3605 18.9183 9.04813 14.1951Z" fill="#FDFDFD"/>
</g>
<g style="mix-blend-mode:lighten">
<path d="M49.5172 17.2667C44.5215 12.3882 40.3958 11.5808 28.0607 17.3959L42.8406 24.3976C52.3543 25.5969 55.2044 28.8695 61.0787 33.8786C55.4078 26.9803 53.2334 23.386 54.5219 18.6548C54.7017 17.7503 59.1983 19.5373 60.8488 20.4097C62.4996 21.2822 68.961 22.3621 69.2718 21.7786C69.8488 20.6949 65.5428 19.7769 65.5428 19.7769C65.5428 19.7769 70.7667 16.3889 70.1035 15.7904C69.4404 15.1919 64.2446 17.4821 64.2446 17.4821C64.2446 17.4821 65.348 13.504 64.4853 13.1265C63.6226 12.749 62.035 17.9748 62.035 17.9748C62.035 17.9748 55.3536 12.6666 52.9089 13.5087C50.4642 14.3508 49.5172 17.2667 49.5172 17.2667Z" fill="#FDFDFD"/>
</g>
<g style="mix-blend-mode:lighten">
<path d="M43.0974 24.4688C34.0139 27.0696 29.3784 26.8738 23.0646 19.4651C26.7836 17.736 28.5452 16.1481 33.3643 17.2085C38.1835 18.269 41.0415 21.4168 43.0974 24.4688Z" fill="#FDFDFD"/>
</g>
<path d="M27.6059 61.48C27.6379 61.5546 27.6379 61.6186 27.6059 61.672C27.5845 61.7253 27.5365 61.752 27.4619 61.752H26.5499C26.4645 61.752 26.3952 61.7413 26.3419 61.72C26.2885 61.688 26.2405 61.6293 26.1979 61.544L24.1499 57.288H22.0539V61.464C22.0539 61.656 21.9632 61.752 21.7819 61.752H21.0939C20.9125 61.752 20.8219 61.6613 20.8219 61.48V51.4C20.8219 51.2293 20.9125 51.144 21.0939 51.144H24.3579C24.7525 51.144 25.1365 51.2026 25.5099 51.32C25.8832 51.4266 26.2139 51.6026 26.5019 51.848C26.7899 52.0826 27.0192 52.392 27.1899 52.776C27.3605 53.16 27.4459 53.6186 27.4459 54.152C27.4459 54.4506 27.4085 54.7546 27.3339 55.064C27.2592 55.3626 27.1419 55.6453 26.9819 55.912C26.8219 56.1786 26.6085 56.4186 26.3419 56.632C26.0859 56.8346 25.7765 56.9946 25.4139 57.112L27.6059 61.48ZM26.1499 54.136C26.1499 53.7626 26.0912 53.4586 25.9739 53.224C25.8565 52.9786 25.6965 52.792 25.4939 52.664C25.3019 52.5253 25.0779 52.4293 24.8219 52.376C24.5765 52.3226 24.3205 52.296 24.0539 52.296H22.0539V56.184H24.0219C24.2565 56.184 24.4965 56.1626 24.7419 56.12C24.9979 56.0666 25.2272 55.9706 25.4299 55.832C25.6432 55.6826 25.8139 55.4746 25.9419 55.208C26.0805 54.9306 26.1499 54.5733 26.1499 54.136ZM34.0437 60.888C33.6491 61.1226 33.2064 61.3466 32.7157 61.56C32.2357 61.7733 31.6757 61.88 31.0357 61.88C30.2571 61.88 29.7024 61.6933 29.3717 61.32C29.0411 60.9466 28.8757 60.3973 28.8757 59.672C28.8757 58.7653 29.1051 58.0933 29.5637 57.656C30.0224 57.208 30.7851 56.984 31.8517 56.984H34.0597V56.44C34.0597 55.8533 33.9211 55.448 33.6437 55.224C33.3771 55 32.8917 54.888 32.1877 54.888C32.0384 54.888 31.8677 54.8933 31.6757 54.904C31.4944 54.904 31.3024 54.9146 31.0997 54.936C30.8971 54.9466 30.6944 54.9626 30.4917 54.984C30.2891 54.9946 30.1024 55.0106 29.9317 55.032C29.7504 55.064 29.6437 55.016 29.6117 54.888L29.5157 54.472C29.4944 54.3973 29.4997 54.3333 29.5317 54.28C29.5744 54.2266 29.6544 54.1733 29.7717 54.12C29.9317 54.0666 30.1237 54.0186 30.3477 53.976C30.5717 53.9333 30.8064 53.9013 31.0517 53.88C31.2971 53.848 31.5371 53.8266 31.7717 53.816C32.0171 53.8053 32.2357 53.8 32.4277 53.8C33.0677 53.8 33.5744 53.8693 33.9477 54.008C34.3317 54.1466 34.6197 54.3386 34.8117 54.584C35.0144 54.8293 35.1424 55.128 35.1957 55.48C35.2491 55.832 35.2757 56.2213 35.2757 56.648V60.184C35.2757 60.344 35.2811 60.4666 35.2917 60.552C35.3131 60.6373 35.3397 60.7013 35.3717 60.744C35.4144 60.7866 35.4731 60.8186 35.5477 60.84C35.6224 60.8506 35.7237 60.8613 35.8517 60.872C36.0331 60.8826 36.1237 60.952 36.1237 61.08V61.48C36.1237 61.5546 36.1024 61.6186 36.0597 61.672C36.0171 61.7146 35.9317 61.7466 35.8037 61.768C35.6117 61.8 35.4251 61.816 35.2437 61.816C34.8704 61.816 34.5931 61.7466 34.4117 61.608C34.2411 61.4693 34.1291 61.2293 34.0757 60.888H34.0437ZM34.0597 57.992H31.7077C31.2171 57.992 30.8277 58.104 30.5397 58.328C30.2517 58.552 30.1077 58.984 30.1077 59.624C30.1077 60.072 30.1931 60.376 30.3637 60.536C30.5451 60.696 30.8704 60.776 31.3397 60.776C31.5424 60.776 31.7611 60.7493 31.9957 60.696C32.2411 60.6426 32.4864 60.5733 32.7317 60.488C32.9771 60.392 33.2117 60.2906 33.4357 60.184C33.6704 60.0773 33.8784 59.9706 34.0597 59.864V57.992ZM36.9185 61.064C36.9185 60.8826 36.9665 60.728 37.0625 60.6L41.2865 55.048H37.4145C37.2332 55.048 37.1425 54.9573 37.1425 54.776V54.2C37.1425 54.04 37.2332 53.96 37.4145 53.96H42.3905C42.4758 53.96 42.5452 53.9706 42.5985 53.992C42.6518 54.0133 42.6785 54.0773 42.6785 54.184V54.76C42.6785 54.9306 42.6252 55.08 42.5185 55.208L38.4385 60.616H42.4545C42.6465 60.616 42.7425 60.7013 42.7425 60.872V61.48C42.7425 61.6613 42.6518 61.752 42.4705 61.752H37.1585C36.9985 61.752 36.9185 61.6773 36.9185 61.528V61.064ZM47.6804 61.544C47.627 61.6826 47.5364 61.752 47.4084 61.752H46.6724C46.587 61.752 46.5284 61.736 46.4964 61.704C46.4644 61.672 46.4377 61.624 46.4164 61.56L43.6164 54.216C43.595 54.152 43.5897 54.0933 43.6004 54.04C43.6217 53.9866 43.6697 53.96 43.7444 53.96H44.6244C44.7097 53.96 44.763 53.9813 44.7844 54.024C44.8164 54.056 44.8484 54.1093 44.8804 54.184L46.4804 58.664L46.7364 59.432C46.8004 59.6346 46.859 59.8213 46.9124 59.992C46.9764 60.1626 47.019 60.2746 47.0404 60.328H47.0724C47.083 60.2853 47.115 60.1733 47.1684 59.992C47.2324 59.8 47.3017 59.6026 47.3764 59.4C47.4617 59.1653 47.5524 58.904 47.6484 58.616L49.2164 54.168C49.2484 54.0826 49.275 54.0293 49.2964 54.008C49.3284 53.976 49.3817 53.96 49.4564 53.96H50.3364C50.4857 53.96 50.523 54.04 50.4484 54.2L47.6804 61.544ZM56.5906 60.888C56.1959 61.1226 55.7533 61.3466 55.2626 61.56C54.7826 61.7733 54.2226 61.88 53.5826 61.88C52.8039 61.88 52.2493 61.6933 51.9186 61.32C51.5879 60.9466 51.4226 60.3973 51.4226 59.672C51.4226 58.7653 51.6519 58.0933 52.1106 57.656C52.5693 57.208 53.3319 56.984 54.3986 56.984H56.6066V56.44C56.6066 55.8533 56.4679 55.448 56.1906 55.224C55.9239 55 55.4386 54.888 54.7346 54.888C54.5853 54.888 54.4146 54.8933 54.2226 54.904C54.0413 54.904 53.8493 54.9146 53.6466 54.936C53.4439 54.9466 53.2413 54.9626 53.0386 54.984C52.8359 54.9946 52.6493 55.0106 52.4786 55.032C52.2973 55.064 52.1906 55.016 52.1586 54.888L52.0626 54.472C52.0413 54.3973 52.0466 54.3333 52.0786 54.28C52.1213 54.2266 52.2013 54.1733 52.3186 54.12C52.4786 54.0666 52.6706 54.0186 52.8946 53.976C53.1186 53.9333 53.3533 53.9013 53.5986 53.88C53.8439 53.848 54.0839 53.8266 54.3186 53.816C54.5639 53.8053 54.7826 53.8 54.9746 53.8C55.6146 53.8 56.1213 53.8693 56.4946 54.008C56.8786 54.1466 57.1666 54.3386 57.3586 54.584C57.5613 54.8293 57.6893 55.128 57.7426 55.48C57.7959 55.832 57.8226 56.2213 57.8226 56.648V60.184C57.8226 60.344 57.8279 60.4666 57.8386 60.552C57.8599 60.6373 57.8866 60.7013 57.9186 60.744C57.9613 60.7866 58.0199 60.8186 58.0946 60.84C58.1693 60.8506 58.2706 60.8613 58.3986 60.872C58.5799 60.8826 58.6706 60.952 58.6706 61.08V61.48C58.6706 61.5546 58.6493 61.6186 58.6066 61.672C58.5639 61.7146 58.4786 61.7466 58.3506 61.768C58.1586 61.8 57.9719 61.816 57.7906 61.816C57.4173 61.816 57.1399 61.7466 56.9586 61.608C56.7879 61.4693 56.6759 61.2293 56.6226 60.888H56.5906ZM56.6066 57.992H54.2546C53.7639 57.992 53.3746 58.104 53.0866 58.328C52.7986 58.552 52.6546 58.984 52.6546 59.624C52.6546 60.072 52.7399 60.376 52.9106 60.536C53.0919 60.696 53.4173 60.776 53.8866 60.776C54.0893 60.776 54.3079 60.7493 54.5426 60.696C54.7879 60.6426 55.0333 60.5733 55.2786 60.488C55.5239 60.392 55.7586 60.2906 55.9826 60.184C56.2173 60.0773 56.4253 59.9706 56.6066 59.864V57.992ZM66.1694 61.48C66.1694 61.6613 66.0734 61.752 65.8814 61.752H65.2094C65.028 61.752 64.9374 61.6613 64.9374 61.48L64.9534 56.744C64.9534 56.3813 64.932 56.0826 64.8894 55.848C64.8467 55.6026 64.772 55.4106 64.6654 55.272C64.5694 55.1333 64.436 55.0373 64.2654 54.984C64.1054 54.9306 63.9027 54.904 63.6574 54.904C63.4654 54.904 63.2414 54.9413 62.9854 55.016C62.7294 55.0906 62.4734 55.176 62.2174 55.272C61.9614 55.368 61.7214 55.4693 61.4974 55.576C61.2734 55.672 61.1027 55.752 60.9854 55.816V61.48C60.9854 61.6613 60.8894 61.752 60.6974 61.752H60.0414C59.8707 61.752 59.7854 61.6613 59.7854 61.48V54.232C59.7854 54.0506 59.8707 53.96 60.0414 53.96H60.6974C60.7934 53.96 60.8627 53.976 60.9054 54.008C60.9587 54.04 60.9854 54.1146 60.9854 54.232V54.808L61.0334 54.824C61.1614 54.7386 61.3267 54.6373 61.5294 54.52C61.732 54.4026 61.956 54.2906 62.2014 54.184C62.4574 54.0773 62.724 53.9866 63.0014 53.912C63.2787 53.8373 63.5614 53.8 63.8494 53.8C64.372 53.8 64.7827 53.8746 65.0814 54.024C65.3907 54.1733 65.6254 54.3813 65.7854 54.648C65.9454 54.904 66.0467 55.2133 66.0894 55.576C66.1427 55.9386 66.1694 56.3333 66.1694 56.76V61.48Z" fill="white"/>
</svg>
