<svg width="937" height="327" viewBox="0 0 937 327" fill="none" xmlns="http://www.w3.org/2000/svg">
<path d="M50.5986 80.368C50.5986 81.456 50.0866 82 49.0626 82H44.9346C43.7826 82 43.2066 81.456 43.2066 80.368V51.76H14.6946V80.368C14.6946 81.456 14.1826 82 13.1586 82H9.03063C7.87863 82 7.30263 81.456 7.30263 80.368V20.08C7.30263 19.376 7.43063 18.928 7.68663 18.736C8.00663 18.48 8.45463 18.352 9.03063 18.352H13.1586C13.6706 18.352 14.0546 18.48 14.3106 18.736C14.5666 18.928 14.6946 19.376 14.6946 20.08V44.848H43.2066V20.08C43.2066 19.376 43.3346 18.928 43.5906 18.736C43.9106 18.48 44.3586 18.352 44.9346 18.352H49.0626C49.5746 18.352 49.9586 18.48 50.2146 18.736C50.4706 18.928 50.5986 19.376 50.5986 20.08V80.368ZM72.3644 22.768C72.3644 23.984 72.1084 25.008 71.5964 25.84C71.1484 26.672 70.0284 27.088 68.2364 27.088C66.3804 27.088 65.2284 26.672 64.7804 25.84C64.3324 24.944 64.1084 23.92 64.1084 22.768C64.1084 21.552 64.3644 20.56 64.8764 19.792C65.4524 19.024 66.5724 18.64 68.2364 18.64C69.9644 18.64 71.0844 19.024 71.5964 19.792C72.1084 20.496 72.3644 21.488 72.3644 22.768ZM71.7884 80.368C71.7884 81.456 71.2764 82 70.2524 82H66.3164C65.1644 82 64.5884 81.456 64.5884 80.368V36.88C64.5884 36.176 64.7164 35.728 64.9724 35.536C65.2924 35.344 65.7404 35.248 66.3164 35.248H70.2524C71.2764 35.248 71.7884 35.792 71.7884 36.88V80.368ZM93.2594 79.984C93.2594 83.824 92.4594 86.928 90.8594 89.296C89.3234 91.664 87.5954 93.456 85.6754 94.672C85.4834 94.8 85.2274 94.928 84.9074 95.056C84.5874 95.184 84.2674 95.088 83.9474 94.768L82.7954 93.712C82.5394 93.52 82.4434 93.296 82.5074 93.04C82.6354 92.784 82.8274 92.528 83.0834 92.272C84.2354 91.248 85.0354 90.16 85.4834 89.008C85.9954 87.856 86.2514 86.672 86.2514 85.456C86.2514 84.304 86.0274 83.152 85.5794 82C85.1314 80.784 84.5554 79.76 83.8514 78.928C83.2754 78.16 83.4034 77.488 84.2354 76.912L88.0754 74.032C88.5234 73.712 88.9394 73.584 89.3234 73.648C89.7714 73.648 90.1554 73.808 90.4754 74.128C91.4354 75.024 92.1394 76.016 92.5874 77.104C93.0354 78.128 93.2594 79.088 93.2594 79.984Z" fill="white"/>
<path d="M16.215 186.368C16.215 187.456 15.671 188 14.583 188H10.359C9.207 188 8.631 187.456 8.631 186.368V126.08C8.631 125.376 8.759 124.928 9.015 124.736C9.335 124.48 9.783 124.352 10.359 124.352H14.583C15.095 124.352 15.479 124.48 15.735 124.736C16.055 124.928 16.215 125.376 16.215 126.08V186.368ZM40.11 128.768C40.11 132.16 39.31 135.136 37.71 137.696C36.11 140.256 34.35 142.176 32.43 143.456C32.238 143.584 31.982 143.712 31.662 143.84C31.342 143.904 31.118 143.872 30.99 143.744L29.646 142.4C29.262 142.016 29.358 141.6 29.934 141.152C31.086 140.128 31.886 139.04 32.334 137.888C32.846 136.672 33.102 135.456 33.102 134.24C33.102 133.152 32.878 132.032 32.43 130.88C31.982 129.664 31.406 128.608 30.702 127.712C30.51 127.456 30.414 127.168 30.414 126.848C30.414 126.464 30.67 126.112 31.182 125.792L34.926 122.816C35.374 122.496 35.79 122.368 36.174 122.432C36.622 122.496 37.006 122.656 37.326 122.912C38.286 123.808 38.99 124.8 39.438 125.888C39.886 126.912 40.11 127.872 40.11 128.768ZM117.098 186.368C117.098 187.456 116.554 188 115.466 188H111.434C110.346 188 109.802 187.456 109.802 186.368V157.472C109.802 155.488 109.674 153.824 109.418 152.48C109.226 151.136 108.842 150.048 108.266 149.216C107.69 148.384 106.922 147.808 105.962 147.488C105.002 147.104 103.786 146.912 102.314 146.912C101.162 146.912 99.8823 147.136 98.4743 147.584C97.1303 147.968 95.7543 148.448 94.3463 149.024C92.9383 149.6 91.5943 150.208 90.3143 150.848C89.0343 151.488 87.9783 152.032 87.1463 152.48C87.2103 152.864 87.2423 153.504 87.2423 154.4C87.3063 155.296 87.3383 156.384 87.3383 157.664V186.368C87.3383 187.456 86.7943 188 85.7063 188H81.4823C80.5223 188 80.0423 187.456 80.0423 186.368L80.1383 156.8C80.1383 153.664 79.6583 151.232 78.6983 149.504C77.7383 147.776 75.7863 146.912 72.8423 146.912C71.7543 146.912 70.5703 147.104 69.2903 147.488C68.0103 147.808 66.6663 148.256 65.2583 148.832C63.9143 149.344 62.5703 149.92 61.2263 150.56C59.8823 151.2 58.6663 151.808 57.5782 152.384V186.368C57.5782 187.456 57.0343 188 55.9463 188H51.9143C50.8903 188 50.3783 187.456 50.3783 186.368V142.88C50.3783 141.792 50.8903 141.248 51.9143 141.248H55.8503C57.0023 141.248 57.5782 141.792 57.5782 142.88V146.144V146.24C57.5782 146.24 57.6102 146.24 57.6743 146.24C58.6343 145.664 59.6903 145.024 60.8423 144.32C62.0583 143.616 63.3383 142.976 64.6823 142.4C66.0903 141.76 67.5303 141.248 69.0023 140.864C70.4743 140.48 71.9783 140.288 73.5143 140.288C77.0343 140.288 79.7543 140.896 81.6743 142.112C83.6583 143.264 85.0663 144.96 85.8983 147.2C88.3943 145.472 91.0823 143.904 93.9623 142.496C96.9063 141.024 100.01 140.288 103.274 140.288C106.282 140.288 108.682 140.704 110.474 141.536C112.33 142.368 113.738 143.552 114.698 145.088C115.658 146.56 116.298 148.352 116.618 150.464C116.938 152.576 117.098 154.912 117.098 157.472V186.368Z" fill="white"/>
<path d="M209.077 185.868C209.328 186.453 209.328 186.955 209.077 187.373C208.91 187.791 208.534 188 207.948 188H200.798C200.129 188 199.586 187.916 199.168 187.749C198.749 187.498 198.373 187.038 198.039 186.369L181.982 153.002H165.55V185.742C165.55 187.247 164.839 188 163.417 188H158.023C156.602 188 155.891 187.289 155.891 185.868V106.84C155.891 105.502 156.602 104.833 158.023 104.833H183.613C186.707 104.833 189.718 105.293 192.645 106.213C195.572 107.049 198.164 108.429 200.422 110.353C202.68 112.192 204.478 114.618 205.816 117.628C207.154 120.639 207.823 124.235 207.823 128.416C207.823 130.758 207.53 133.141 206.945 135.566C206.359 137.908 205.44 140.124 204.185 142.214C202.931 144.305 201.258 146.187 199.168 147.859C197.16 149.448 194.735 150.703 191.892 151.622L209.077 185.868ZM197.662 128.291C197.662 125.364 197.202 122.98 196.282 121.14C195.363 119.217 194.108 117.754 192.519 116.75C191.014 115.663 189.258 114.91 187.251 114.492C185.327 114.074 183.32 113.865 181.23 113.865H165.55V144.347H180.979C182.819 144.347 184.7 144.18 186.624 143.845C188.631 143.427 190.429 142.674 192.017 141.587C193.69 140.416 195.028 138.786 196.032 136.695C197.119 134.521 197.662 131.719 197.662 128.291Z" fill="#08FDD8"/>
<path d="M210.637 185.428C210.888 186.013 210.888 186.515 210.637 186.933C210.47 187.351 210.094 187.56 209.508 187.56H202.358C201.689 187.56 201.146 187.476 200.728 187.309C200.309 187.058 199.933 186.598 199.599 185.929L183.542 152.562H167.11V185.302C167.11 186.807 166.399 187.56 164.977 187.56H159.583C158.162 187.56 157.451 186.849 157.451 185.428V106.4C157.451 105.062 158.162 104.393 159.583 104.393H185.173C188.267 104.393 191.278 104.853 194.205 105.773C197.132 106.609 199.724 107.989 201.982 109.913C204.24 111.752 206.038 114.178 207.376 117.188C208.714 120.199 209.383 123.795 209.383 127.976C209.383 130.318 209.09 132.701 208.505 135.126C207.919 137.468 207 139.684 205.745 141.774C204.491 143.865 202.818 145.747 200.728 147.419C198.721 149.008 196.295 150.263 193.452 151.182L210.637 185.428ZM199.222 127.851C199.222 124.924 198.762 122.54 197.842 120.701C196.923 118.777 195.668 117.314 194.079 116.31C192.574 115.223 190.818 114.47 188.811 114.052C186.887 113.634 184.88 113.425 182.79 113.425H167.11V143.907H182.539C184.379 143.907 186.26 143.74 188.184 143.405C190.191 142.987 191.989 142.234 193.578 141.147C195.25 139.976 196.588 138.346 197.592 136.255C198.679 134.081 199.222 131.279 199.222 127.851Z" fill="#FD2155"/>
<path d="M213.197 182.868C213.448 183.453 213.448 183.955 213.197 184.373C213.03 184.791 212.654 185 212.068 185H204.918C204.249 185 203.706 184.916 203.287 184.749C202.869 184.498 202.493 184.038 202.158 183.369L186.102 150.002H169.669V182.742C169.669 184.247 168.959 185 167.537 185H162.143C160.721 185 160.011 184.289 160.011 182.868V103.84C160.011 102.502 160.721 101.833 162.143 101.833H187.733C190.827 101.833 193.838 102.293 196.765 103.213C199.691 104.049 202.284 105.429 204.542 107.353C206.8 109.192 208.598 111.618 209.936 114.628C211.274 117.639 211.943 121.235 211.943 125.416C211.943 127.758 211.65 130.141 211.065 132.566C210.479 134.908 209.559 137.124 208.305 139.214C207.051 141.305 205.378 143.187 203.287 144.859C201.28 146.448 198.855 147.703 196.012 148.622L213.197 182.868ZM201.782 125.291C201.782 122.364 201.322 119.98 200.402 118.14C199.482 116.217 198.228 114.754 196.639 113.75C195.134 112.663 193.378 111.91 191.371 111.492C189.447 111.074 187.44 110.865 185.349 110.865H169.669V141.347H185.099C186.938 141.347 188.82 141.18 190.743 140.845C192.75 140.427 194.548 139.674 196.137 138.587C197.81 137.416 199.148 135.786 200.151 133.695C201.239 131.521 201.782 128.719 201.782 125.291Z" fill="white"/>
<path d="M254.506 181.816C252.138 183.224 249.482 184.568 246.538 185.848C243.658 187.128 240.298 187.768 236.458 187.768C231.786 187.768 228.458 186.648 226.474 184.408C224.49 182.168 223.498 178.872 223.498 174.52C223.498 169.08 224.874 165.048 227.626 162.424C230.378 159.736 234.954 158.392 241.354 158.392H254.602V155.128C254.602 151.608 253.77 149.176 252.106 147.832C250.506 146.488 247.594 145.816 243.37 145.816C242.474 145.816 241.45 145.848 240.298 145.912C239.21 145.912 238.058 145.976 236.842 146.104C235.626 146.168 234.41 146.264 233.194 146.392C231.978 146.456 230.858 146.552 229.834 146.68C228.746 146.872 228.106 146.584 227.914 145.816L227.338 143.32C227.21 142.872 227.242 142.488 227.434 142.168C227.69 141.848 228.17 141.528 228.874 141.208C229.834 140.888 230.986 140.6 232.33 140.344C233.674 140.088 235.082 139.896 236.554 139.768C238.026 139.576 239.466 139.448 240.874 139.384C242.346 139.32 243.658 139.288 244.81 139.288C248.65 139.288 251.69 139.704 253.93 140.536C256.234 141.368 257.962 142.52 259.114 143.992C260.33 145.464 261.098 147.256 261.418 149.368C261.738 151.48 261.898 153.816 261.898 156.376V177.592C261.898 178.552 261.93 179.288 261.994 179.8C262.122 180.312 262.282 180.696 262.474 180.952C262.73 181.208 263.082 181.4 263.53 181.528C263.978 181.592 264.586 181.656 265.354 181.72C266.442 181.784 266.986 182.2 266.986 182.968V185.368C266.986 185.816 266.858 186.2 266.602 186.52C266.346 186.776 265.834 186.968 265.066 187.096C263.914 187.288 262.794 187.384 261.706 187.384C259.466 187.384 257.802 186.968 256.714 186.136C255.69 185.304 255.018 183.864 254.698 181.816H254.506ZM254.602 164.44H240.49C237.546 164.44 235.21 165.112 233.482 166.456C231.754 167.8 230.89 170.392 230.89 174.232C230.89 176.92 231.402 178.744 232.426 179.704C233.514 180.664 235.466 181.144 238.282 181.144C239.498 181.144 240.81 180.984 242.218 180.664C243.69 180.344 245.162 179.928 246.634 179.416C248.106 178.84 249.514 178.232 250.858 177.592C252.266 176.952 253.514 176.312 254.602 175.672V164.44ZM271.754 182.872C271.754 181.784 272.042 180.856 272.618 180.088L297.962 146.776H274.73C273.642 146.776 273.098 146.232 273.098 145.144V141.688C273.098 140.728 273.642 140.248 274.73 140.248H304.586C305.098 140.248 305.514 140.312 305.834 140.44C306.154 140.568 306.314 140.952 306.314 141.592V145.048C306.314 146.072 305.994 146.968 305.354 147.736L280.874 180.184H304.97C306.122 180.184 306.698 180.696 306.698 181.72V185.368C306.698 186.456 306.154 187 305.066 187H273.194C272.234 187 271.754 186.552 271.754 185.656V182.872ZM336.325 185.752C336.005 186.584 335.461 187 334.693 187H330.277C329.765 187 329.413 186.904 329.221 186.712C329.029 186.52 328.869 186.232 328.741 185.848L311.941 141.784C311.813 141.4 311.781 141.048 311.845 140.728C311.973 140.408 312.261 140.248 312.709 140.248H317.989C318.501 140.248 318.821 140.376 318.949 140.632C319.141 140.824 319.333 141.144 319.525 141.592L329.125 168.472L330.661 173.08C331.045 174.296 331.397 175.416 331.717 176.44C332.101 177.464 332.357 178.136 332.485 178.456H332.677C332.741 178.2 332.933 177.528 333.253 176.44C333.637 175.288 334.053 174.104 334.501 172.888C335.013 171.48 335.557 169.912 336.133 168.184L345.541 141.496C345.733 140.984 345.893 140.664 346.021 140.536C346.213 140.344 346.533 140.248 346.981 140.248H352.261C353.157 140.248 353.381 140.728 352.933 141.688L336.325 185.752ZM389.787 181.816C387.419 183.224 384.763 184.568 381.819 185.848C378.939 187.128 375.579 187.768 371.739 187.768C367.067 187.768 363.739 186.648 361.755 184.408C359.771 182.168 358.779 178.872 358.779 174.52C358.779 169.08 360.155 165.048 362.907 162.424C365.659 159.736 370.235 158.392 376.635 158.392H389.883V155.128C389.883 151.608 389.051 149.176 387.387 147.832C385.787 146.488 382.875 145.816 378.651 145.816C377.755 145.816 376.731 145.848 375.579 145.912C374.491 145.912 373.339 145.976 372.123 146.104C370.907 146.168 369.691 146.264 368.475 146.392C367.259 146.456 366.139 146.552 365.115 146.68C364.027 146.872 363.387 146.584 363.195 145.816L362.619 143.32C362.491 142.872 362.523 142.488 362.715 142.168C362.971 141.848 363.451 141.528 364.155 141.208C365.115 140.888 366.267 140.6 367.611 140.344C368.955 140.088 370.363 139.896 371.835 139.768C373.307 139.576 374.747 139.448 376.155 139.384C377.627 139.32 378.939 139.288 380.091 139.288C383.931 139.288 386.971 139.704 389.211 140.536C391.515 141.368 393.243 142.52 394.395 143.992C395.611 145.464 396.379 147.256 396.699 149.368C397.019 151.48 397.179 153.816 397.179 156.376V177.592C397.179 178.552 397.211 179.288 397.275 179.8C397.403 180.312 397.563 180.696 397.755 180.952C398.011 181.208 398.363 181.4 398.811 181.528C399.259 181.592 399.867 181.656 400.635 181.72C401.723 181.784 402.267 182.2 402.267 182.968V185.368C402.267 185.816 402.139 186.2 401.883 186.52C401.627 186.776 401.115 186.968 400.347 187.096C399.195 187.288 398.075 187.384 396.987 187.384C394.747 187.384 393.083 186.968 391.995 186.136C390.971 185.304 390.299 183.864 389.979 181.816H389.787ZM389.883 164.44H375.771C372.827 164.44 370.491 165.112 368.763 166.456C367.035 167.8 366.171 170.392 366.171 174.232C366.171 176.92 366.683 178.744 367.707 179.704C368.795 180.664 370.747 181.144 373.563 181.144C374.779 181.144 376.091 180.984 377.499 180.664C378.971 180.344 380.443 179.928 381.915 179.416C383.387 178.84 384.795 178.232 386.139 177.592C387.547 176.952 388.795 176.312 389.883 175.672V164.44ZM447.259 185.368C447.259 186.456 446.683 187 445.531 187H441.499C440.411 187 439.867 186.456 439.867 185.368L439.963 156.952C439.963 154.776 439.835 152.984 439.579 151.576C439.323 150.104 438.875 148.952 438.235 148.12C437.659 147.288 436.859 146.712 435.835 146.392C434.875 146.072 433.659 145.912 432.187 145.912C431.035 145.912 429.691 146.136 428.155 146.584C426.619 147.032 425.083 147.544 423.547 148.12C422.011 148.696 420.571 149.304 419.227 149.944C417.883 150.52 416.859 151 416.155 151.384V185.368C416.155 186.456 415.579 187 414.427 187H410.491C409.467 187 408.955 186.456 408.955 185.368V141.88C408.955 140.792 409.467 140.248 410.491 140.248H414.427C415.003 140.248 415.419 140.344 415.675 140.536C415.995 140.728 416.155 141.176 416.155 141.88V145.336L416.443 145.432C417.211 144.92 418.203 144.312 419.419 143.608C420.635 142.904 421.979 142.232 423.451 141.592C424.987 140.952 426.587 140.408 428.251 139.96C429.915 139.512 431.611 139.288 433.339 139.288C436.475 139.288 438.939 139.736 440.731 140.632C442.587 141.528 443.995 142.776 444.955 144.376C445.915 145.912 446.523 147.768 446.779 149.944C447.099 152.12 447.259 154.488 447.259 157.048V185.368ZM466.736 184.984C466.736 188.824 465.936 191.928 464.336 194.296C462.8 196.664 461.072 198.456 459.152 199.672C458.96 199.8 458.704 199.928 458.384 200.056C458.064 200.184 457.744 200.088 457.424 199.768L456.272 198.712C456.016 198.52 455.92 198.296 455.984 198.04C456.112 197.784 456.304 197.528 456.56 197.272C457.712 196.248 458.512 195.16 458.96 194.008C459.472 192.856 459.728 191.672 459.728 190.456C459.728 189.304 459.504 188.152 459.056 187C458.608 185.784 458.032 184.76 457.328 183.928C456.752 183.16 456.88 182.488 457.712 181.912L461.552 179.032C462 178.712 462.416 178.584 462.8 178.648C463.248 178.648 463.632 178.808 463.952 179.128C464.912 180.024 465.616 181.016 466.064 182.104C466.512 183.128 466.736 184.088 466.736 184.984Z" fill="white"/>
<path d="M25.402 226.224C25.85 226.224 26.49 226.256 27.322 226.32C28.154 226.384 29.082 226.512 30.106 226.704C31.13 226.832 32.186 227.024 33.274 227.28C34.362 227.536 35.386 227.856 36.346 228.24C36.858 228.432 37.146 228.72 37.21 229.104C37.338 229.488 37.37 229.872 37.306 230.256L36.922 232.464C36.794 232.976 36.474 233.328 35.962 233.52C35.514 233.648 35.002 233.648 34.426 233.52C32.442 233.2 30.746 233.008 29.338 232.944C27.994 232.816 26.97 232.752 26.266 232.752C23.002 232.752 20.634 233.456 19.162 234.864C17.69 236.272 16.954 238.64 16.954 241.968V247.248H28.954C30.042 247.248 30.586 247.792 30.586 248.88V251.664C30.586 252.752 30.042 253.296 28.954 253.296H16.954V292.368C16.954 293.456 16.442 294 15.418 294H11.482C10.33 294 9.754 293.456 9.754 292.368V253.296H5.05C3.962 253.296 3.418 252.752 3.418 251.664V248.976C3.418 247.824 3.962 247.248 5.05 247.248H9.85V241.776C9.85 239.408 10.106 237.264 10.618 235.344C11.194 233.424 12.09 231.792 13.306 230.448C14.522 229.104 16.122 228.08 18.106 227.376C20.09 226.608 22.522 226.224 25.402 226.224ZM66.6153 251.952C66.8073 253.104 66.3913 253.744 65.3673 253.872C64.0873 254.128 62.6793 254.48 61.1433 254.928C59.6073 255.312 58.1033 255.728 56.6313 256.176C55.2233 256.56 53.9113 256.976 52.6953 257.424C51.4793 257.808 50.5833 258.16 50.0073 258.48V292.368C50.0073 293.456 49.4633 294 48.3753 294H44.2473C43.2233 294 42.7113 293.456 42.7113 292.368V248.88C42.7113 247.792 43.2233 247.248 44.2473 247.248H48.2793C49.4313 247.248 50.0073 247.792 50.0073 248.88V252.816L50.1993 253.008C50.8393 252.496 51.7033 251.952 52.7913 251.376C53.9433 250.736 55.1913 250.128 56.5353 249.552C57.8793 248.912 59.2553 248.368 60.6633 247.92C62.0713 247.408 63.3833 247.024 64.5993 246.768C65.1753 246.64 65.5593 246.672 65.7513 246.864C65.9433 246.992 66.1033 247.344 66.2313 247.92L66.6153 251.952ZM110.403 269.808C110.403 272.624 110.243 275.504 109.923 278.448C109.603 281.392 108.771 284.08 107.427 286.512C106.147 288.944 104.163 290.928 101.475 292.464C98.7873 294 95.0753 294.768 90.3393 294.768C85.7313 294.768 82.1153 294 79.4913 292.464C76.9313 290.928 75.0113 288.976 73.7313 286.608C72.4513 284.176 71.6513 281.488 71.3313 278.544C71.0753 275.536 70.9473 272.624 70.9473 269.808C70.9473 267.504 71.1393 264.976 71.5233 262.224C71.9073 259.472 72.7393 256.912 74.0193 254.544C75.3633 252.176 77.3153 250.224 79.8753 248.688C82.4353 247.088 85.9233 246.288 90.3393 246.288C94.7553 246.288 98.2753 246.992 100.899 248.4C103.587 249.744 105.635 251.536 107.043 253.776C108.451 255.952 109.347 258.448 109.731 261.264C110.179 264.08 110.403 266.928 110.403 269.808ZM102.915 270.48C102.915 267.536 102.755 264.976 102.435 262.8C102.115 260.56 101.475 258.736 100.515 257.328C99.6193 255.856 98.3393 254.768 96.6753 254.064C95.0753 253.296 92.9633 252.912 90.3393 252.912C87.8433 252.912 85.8273 253.296 84.2913 254.064C82.7553 254.768 81.5393 255.856 80.6432 257.328C79.7473 258.8 79.1393 260.624 78.8193 262.8C78.4993 264.976 78.3393 267.536 78.3393 270.48C78.3393 273.424 78.4993 275.984 78.8193 278.16C79.1393 280.336 79.7473 282.16 80.6432 283.632C81.5393 285.104 82.7553 286.224 84.2913 286.992C85.8273 287.696 87.8433 288.048 90.3393 288.048C92.9633 288.048 95.0753 287.696 96.6753 286.992C98.3393 286.288 99.6193 285.232 100.515 283.824C101.475 282.352 102.115 280.528 102.435 278.352C102.755 276.112 102.915 273.488 102.915 270.48ZM158.205 292.368C158.205 293.456 157.629 294 156.477 294H152.445C151.357 294 150.813 293.456 150.813 292.368L150.909 263.952C150.909 261.776 150.781 259.984 150.525 258.576C150.269 257.104 149.821 255.952 149.181 255.12C148.605 254.288 147.805 253.712 146.781 253.392C145.821 253.072 144.605 252.912 143.133 252.912C141.981 252.912 140.637 253.136 139.101 253.584C137.565 254.032 136.029 254.544 134.493 255.12C132.957 255.696 131.517 256.304 130.173 256.944C128.829 257.52 127.805 258 127.101 258.384V292.368C127.101 293.456 126.525 294 125.373 294H121.437C120.413 294 119.901 293.456 119.901 292.368V248.88C119.901 247.792 120.413 247.248 121.437 247.248H125.373C125.949 247.248 126.365 247.344 126.621 247.536C126.941 247.728 127.101 248.176 127.101 248.88V252.336L127.389 252.432C128.157 251.92 129.149 251.312 130.365 250.608C131.581 249.904 132.925 249.232 134.397 248.592C135.933 247.952 137.533 247.408 139.197 246.96C140.861 246.512 142.557 246.288 144.285 246.288C147.421 246.288 149.885 246.736 151.677 247.632C153.533 248.528 154.941 249.776 155.901 251.376C156.861 252.912 157.469 254.768 157.725 256.944C158.045 259.12 158.205 261.488 158.205 264.048V292.368ZM194.577 291.024C194.641 291.856 194.353 292.464 193.713 292.848C193.137 293.168 192.369 293.456 191.409 293.712C190.513 293.904 189.521 294.064 188.433 294.192C187.409 294.384 186.385 294.512 185.361 294.576C184.401 294.704 183.569 294.768 182.865 294.768C180.817 294.768 179.121 294.512 177.777 294C176.433 293.552 175.377 292.88 174.609 291.984C173.841 291.088 173.297 290.032 172.977 288.816C172.657 287.536 172.497 286.128 172.497 284.592V253.296H167.217C166.129 253.296 165.585 252.752 165.585 251.664V248.976C165.585 247.824 166.129 247.248 167.217 247.248H172.593V236.88C172.593 236.304 172.721 235.888 172.977 235.632C173.297 235.376 173.713 235.184 174.225 235.056L178.065 234C179.153 233.68 179.697 234.16 179.697 235.44V247.248H190.353C191.057 247.248 191.505 247.408 191.697 247.728C191.889 247.984 191.985 248.368 191.985 248.88V251.664C191.985 252.24 191.889 252.656 191.697 252.912C191.505 253.168 191.057 253.296 190.353 253.296H179.697V282.384C179.697 283.536 179.761 284.464 179.889 285.168C180.081 285.872 180.433 286.448 180.945 286.896C181.457 287.344 182.129 287.664 182.961 287.856C183.857 287.984 185.041 288.048 186.513 288.048C187.025 288.048 187.889 288.016 189.105 287.952C190.385 287.824 191.377 287.728 192.081 287.664C192.849 287.6 193.361 287.664 193.617 287.856C193.873 287.984 194.065 288.304 194.193 288.816L194.577 291.024ZM226.473 264.528C226.473 265.296 226.025 265.68 225.129 265.68H199.017C198.121 265.68 197.673 265.296 197.673 264.528V261.552C197.673 261.04 197.769 260.72 197.961 260.592C198.217 260.4 198.569 260.304 199.017 260.304H225.129C225.577 260.304 225.897 260.4 226.089 260.592C226.345 260.72 226.473 261.04 226.473 261.552V264.528ZM273.14 267.504C273.204 269.04 272.948 270.352 272.372 271.44C271.86 272.464 270.708 272.976 268.916 272.976H241.844C241.908 275.856 242.164 278.288 242.612 280.272C243.06 282.192 243.796 283.76 244.82 284.976C245.844 286.128 247.124 286.96 248.66 287.472C250.26 287.92 252.18 288.144 254.42 288.144C255.38 288.144 256.468 288.112 257.684 288.048C258.9 287.92 260.116 287.824 261.332 287.76C262.548 287.632 263.7 287.504 264.788 287.376C265.94 287.248 266.932 287.12 267.764 286.992C268.404 286.928 268.884 286.96 269.204 287.088C269.588 287.216 269.844 287.6 269.972 288.24L270.356 290.352C270.548 291.248 270.196 291.888 269.3 292.272C268.404 292.656 267.316 293.008 266.036 293.328C264.756 293.648 263.412 293.904 262.004 294.096C260.596 294.352 259.188 294.544 257.78 294.672C256.372 294.8 255.092 294.864 253.94 294.864C249.524 294.864 246.004 294.192 243.38 292.848C240.82 291.44 238.868 289.616 237.524 287.376C236.18 285.136 235.284 282.576 234.836 279.696C234.452 276.752 234.26 273.744 234.26 270.672C234.26 268.368 234.452 265.808 234.836 262.992C235.22 260.112 236.084 257.456 237.428 255.024C238.772 252.528 240.724 250.448 243.284 248.784C245.844 247.12 249.332 246.288 253.748 246.288C257.844 246.288 261.14 246.896 263.636 248.112C266.132 249.328 268.052 250.928 269.396 252.912C270.804 254.896 271.732 257.168 272.18 259.728C272.692 262.288 273.012 264.88 273.14 267.504ZM265.364 266.928C265.364 265.264 265.204 263.6 264.884 261.936C264.628 260.208 264.084 258.672 263.252 257.328C262.42 255.984 261.236 254.896 259.7 254.064C258.164 253.232 256.116 252.816 253.556 252.816C251.444 252.816 249.652 253.168 248.18 253.872C246.772 254.512 245.62 255.44 244.724 256.656C243.828 257.872 243.156 259.344 242.708 261.072C242.26 262.8 241.972 264.752 241.844 266.928H265.364ZM320.205 292.368C320.205 293.456 319.629 294 318.477 294H314.445C313.357 294 312.813 293.456 312.813 292.368L312.909 263.952C312.909 261.776 312.781 259.984 312.525 258.576C312.269 257.104 311.821 255.952 311.181 255.12C310.605 254.288 309.805 253.712 308.781 253.392C307.821 253.072 306.605 252.912 305.133 252.912C303.981 252.912 302.637 253.136 301.101 253.584C299.565 254.032 298.029 254.544 296.493 255.12C294.957 255.696 293.517 256.304 292.173 256.944C290.829 257.52 289.805 258 289.101 258.384V292.368C289.101 293.456 288.525 294 287.373 294H283.437C282.413 294 281.901 293.456 281.901 292.368V248.88C281.901 247.792 282.413 247.248 283.437 247.248H287.373C287.949 247.248 288.365 247.344 288.621 247.536C288.941 247.728 289.101 248.176 289.101 248.88V252.336L289.389 252.432C290.157 251.92 291.149 251.312 292.365 250.608C293.581 249.904 294.925 249.232 296.397 248.592C297.933 247.952 299.533 247.408 301.197 246.96C302.861 246.512 304.557 246.288 306.285 246.288C309.421 246.288 311.885 246.736 313.677 247.632C315.533 248.528 316.941 249.776 317.901 251.376C318.861 252.912 319.469 254.768 319.725 256.944C320.045 259.12 320.205 261.488 320.205 264.048V292.368ZM368.865 292.368C368.865 293.456 368.353 294 367.329 294H363.297C362.785 294 362.369 293.904 362.049 293.712C361.793 293.52 361.665 293.072 361.665 292.368V288.816L361.377 288.72C360.673 289.168 359.713 289.744 358.497 290.448C357.345 291.152 356.033 291.824 354.561 292.464C353.153 293.104 351.617 293.648 349.953 294.096C348.289 294.544 346.657 294.768 345.057 294.768C342.049 294.768 339.521 294.256 337.473 293.232C335.489 292.144 333.889 290.608 332.673 288.624C331.457 286.576 330.593 284.08 330.081 281.136C329.633 278.192 329.409 274.832 329.409 271.056C329.409 267.024 329.697 263.472 330.273 260.4C330.849 257.328 331.841 254.768 333.249 252.72C334.721 250.608 336.673 249.008 339.105 247.92C341.537 246.832 344.609 246.288 348.321 246.288C350.049 246.288 352.001 246.48 354.177 246.864C356.417 247.248 358.849 247.952 361.473 248.976L361.665 248.88V228.144C361.665 227.504 361.761 227.056 361.953 226.8C362.145 226.48 362.593 226.32 363.297 226.32H367.329C367.969 226.32 368.385 226.448 368.577 226.704C368.769 226.96 368.865 227.44 368.865 228.144V292.368ZM361.569 255.024C358.945 254.256 356.481 253.712 354.177 253.392C351.937 253.072 349.793 252.912 347.745 252.912C345.697 252.912 343.969 253.232 342.561 253.872C341.217 254.448 340.129 255.472 339.297 256.944C338.465 258.352 337.857 260.24 337.473 262.608C337.153 264.912 336.993 267.792 336.993 271.248C336.993 274.896 337.153 277.84 337.473 280.08C337.857 282.256 338.401 283.952 339.105 285.168C339.873 286.384 340.801 287.184 341.889 287.568C342.977 287.952 344.257 288.144 345.729 288.144C346.881 288.144 348.193 287.952 349.665 287.568C351.201 287.12 352.705 286.608 354.177 286.032C355.649 285.456 357.057 284.88 358.401 284.304C359.745 283.664 360.801 283.12 361.569 282.672V255.024ZM443.678 292.368C443.678 293.456 443.166 294 442.142 294H438.11C437.598 294 437.182 293.904 436.862 293.712C436.606 293.52 436.478 293.072 436.478 292.368V288.816L436.19 288.72C435.486 289.168 434.526 289.744 433.31 290.448C432.158 291.152 430.846 291.824 429.374 292.464C427.966 293.104 426.43 293.648 424.766 294.096C423.102 294.544 421.47 294.768 419.87 294.768C416.862 294.768 414.334 294.256 412.286 293.232C410.302 292.144 408.702 290.608 407.486 288.624C406.27 286.576 405.406 284.08 404.894 281.136C404.446 278.192 404.222 274.832 404.222 271.056C404.222 267.024 404.51 263.472 405.086 260.4C405.662 257.328 406.654 254.768 408.062 252.72C409.534 250.608 411.486 249.008 413.918 247.92C416.35 246.832 419.422 246.288 423.134 246.288C424.862 246.288 426.814 246.48 428.99 246.864C431.23 247.248 433.662 247.952 436.286 248.976L436.478 248.88V228.144C436.478 227.504 436.574 227.056 436.766 226.8C436.958 226.48 437.406 226.32 438.11 226.32H442.142C442.782 226.32 443.198 226.448 443.39 226.704C443.582 226.96 443.678 227.44 443.678 228.144V292.368ZM436.382 255.024C433.758 254.256 431.294 253.712 428.99 253.392C426.75 253.072 424.606 252.912 422.558 252.912C420.51 252.912 418.782 253.232 417.374 253.872C416.03 254.448 414.942 255.472 414.11 256.944C413.278 258.352 412.67 260.24 412.286 262.608C411.966 264.912 411.806 267.792 411.806 271.248C411.806 274.896 411.966 277.84 412.286 280.08C412.67 282.256 413.214 283.952 413.918 285.168C414.686 286.384 415.614 287.184 416.702 287.568C417.79 287.952 419.07 288.144 420.542 288.144C421.694 288.144 423.006 287.952 424.478 287.568C426.014 287.12 427.518 286.608 428.99 286.032C430.462 285.456 431.87 284.88 433.214 284.304C434.558 283.664 435.614 283.12 436.382 282.672V255.024ZM492.327 267.504C492.391 269.04 492.135 270.352 491.559 271.44C491.047 272.464 489.895 272.976 488.103 272.976H461.031C461.095 275.856 461.351 278.288 461.799 280.272C462.247 282.192 462.983 283.76 464.007 284.976C465.031 286.128 466.311 286.96 467.847 287.472C469.447 287.92 471.367 288.144 473.607 288.144C474.567 288.144 475.655 288.112 476.871 288.048C478.087 287.92 479.303 287.824 480.519 287.76C481.735 287.632 482.887 287.504 483.975 287.376C485.127 287.248 486.119 287.12 486.951 286.992C487.591 286.928 488.071 286.96 488.391 287.088C488.775 287.216 489.031 287.6 489.159 288.24L489.543 290.352C489.735 291.248 489.383 291.888 488.487 292.272C487.591 292.656 486.503 293.008 485.223 293.328C483.943 293.648 482.599 293.904 481.191 294.096C479.783 294.352 478.375 294.544 476.967 294.672C475.559 294.8 474.279 294.864 473.127 294.864C468.711 294.864 465.191 294.192 462.567 292.848C460.007 291.44 458.055 289.616 456.711 287.376C455.367 285.136 454.471 282.576 454.023 279.696C453.639 276.752 453.447 273.744 453.447 270.672C453.447 268.368 453.639 265.808 454.023 262.992C454.407 260.112 455.271 257.456 456.615 255.024C457.959 252.528 459.911 250.448 462.471 248.784C465.031 247.12 468.519 246.288 472.935 246.288C477.031 246.288 480.327 246.896 482.823 248.112C485.319 249.328 487.239 250.928 488.583 252.912C489.991 254.896 490.919 257.168 491.367 259.728C491.879 262.288 492.199 264.88 492.327 267.504ZM484.551 266.928C484.551 265.264 484.391 263.6 484.071 261.936C483.815 260.208 483.271 258.672 482.439 257.328C481.607 255.984 480.423 254.896 478.887 254.064C477.351 253.232 475.303 252.816 472.743 252.816C470.631 252.816 468.839 253.168 467.367 253.872C465.959 254.512 464.807 255.44 463.911 256.656C463.015 257.872 462.343 259.344 461.895 261.072C461.447 262.8 461.159 264.752 461.031 266.928H484.551ZM522.208 292.752C521.888 293.584 521.344 294 520.576 294H516.16C515.648 294 515.296 293.904 515.104 293.712C514.912 293.52 514.752 293.232 514.624 292.848L497.824 248.784C497.696 248.4 497.664 248.048 497.728 247.728C497.856 247.408 498.144 247.248 498.592 247.248H503.872C504.384 247.248 504.704 247.376 504.832 247.632C505.024 247.824 505.216 248.144 505.408 248.592L515.008 275.472L516.544 280.08C516.928 281.296 517.28 282.416 517.6 283.44C517.984 284.464 518.24 285.136 518.368 285.456H518.56C518.624 285.2 518.816 284.528 519.136 283.44C519.52 282.288 519.936 281.104 520.384 279.888C520.896 278.48 521.44 276.912 522.016 275.184L531.424 248.496C531.616 247.984 531.776 247.664 531.904 247.536C532.096 247.344 532.416 247.248 532.864 247.248H538.144C539.04 247.248 539.264 247.728 538.816 248.688L522.208 292.752ZM583.734 267.504C583.798 269.04 583.542 270.352 582.966 271.44C582.454 272.464 581.302 272.976 579.51 272.976H552.438C552.502 275.856 552.758 278.288 553.206 280.272C553.654 282.192 554.39 283.76 555.414 284.976C556.438 286.128 557.718 286.96 559.254 287.472C560.854 287.92 562.774 288.144 565.014 288.144C565.974 288.144 567.062 288.112 568.278 288.048C569.494 287.92 570.71 287.824 571.926 287.76C573.142 287.632 574.294 287.504 575.382 287.376C576.534 287.248 577.526 287.12 578.358 286.992C578.998 286.928 579.478 286.96 579.798 287.088C580.182 287.216 580.438 287.6 580.566 288.24L580.95 290.352C581.142 291.248 580.79 291.888 579.894 292.272C578.998 292.656 577.91 293.008 576.63 293.328C575.35 293.648 574.006 293.904 572.598 294.096C571.19 294.352 569.782 294.544 568.374 294.672C566.966 294.8 565.686 294.864 564.534 294.864C560.118 294.864 556.598 294.192 553.974 292.848C551.414 291.44 549.462 289.616 548.118 287.376C546.774 285.136 545.878 282.576 545.43 279.696C545.046 276.752 544.854 273.744 544.854 270.672C544.854 268.368 545.046 265.808 545.43 262.992C545.814 260.112 546.678 257.456 548.022 255.024C549.366 252.528 551.318 250.448 553.878 248.784C556.438 247.12 559.926 246.288 564.342 246.288C568.438 246.288 571.734 246.896 574.23 248.112C576.726 249.328 578.646 250.928 579.99 252.912C581.398 254.896 582.326 257.168 582.774 259.728C583.286 262.288 583.606 264.88 583.734 267.504ZM575.958 266.928C575.958 265.264 575.798 263.6 575.478 261.936C575.222 260.208 574.678 258.672 573.846 257.328C573.014 255.984 571.83 254.896 570.294 254.064C568.758 253.232 566.71 252.816 564.15 252.816C562.038 252.816 560.246 253.168 558.774 253.872C557.366 254.512 556.214 255.44 555.318 256.656C554.422 257.872 553.75 259.344 553.302 261.072C552.854 262.8 552.566 264.752 552.438 266.928H575.958ZM608.238 291.792C608.302 292.56 607.982 293.104 607.278 293.424C606.51 293.744 605.646 294 604.686 294.192C603.79 294.384 602.926 294.48 602.094 294.48C600.494 294.48 599.182 294.288 598.158 293.904C597.134 293.52 596.334 293.008 595.758 292.368C595.182 291.664 594.766 290.832 594.51 289.872C594.318 288.848 594.222 287.76 594.222 286.608V228.048C594.222 226.96 594.766 226.416 595.854 226.416H599.694C600.27 226.416 600.686 226.512 600.942 226.704C601.262 226.896 601.422 227.344 601.422 228.048V284.208C601.422 285.872 601.774 286.896 602.478 287.28C603.182 287.6 604.43 287.76 606.222 287.76C607.246 287.76 607.79 288.08 607.854 288.72L608.238 291.792ZM654.06 269.808C654.06 272.624 653.9 275.504 653.58 278.448C653.26 281.392 652.428 284.08 651.084 286.512C649.804 288.944 647.82 290.928 645.132 292.464C642.444 294 638.732 294.768 633.996 294.768C629.388 294.768 625.772 294 623.148 292.464C620.588 290.928 618.668 288.976 617.388 286.608C616.108 284.176 615.308 281.488 614.988 278.544C614.732 275.536 614.604 272.624 614.604 269.808C614.604 267.504 614.796 264.976 615.18 262.224C615.564 259.472 616.396 256.912 617.676 254.544C619.02 252.176 620.972 250.224 623.532 248.688C626.092 247.088 629.58 246.288 633.996 246.288C638.412 246.288 641.932 246.992 644.556 248.4C647.244 249.744 649.292 251.536 650.7 253.776C652.108 255.952 653.004 258.448 653.388 261.264C653.836 264.08 654.06 266.928 654.06 269.808ZM646.572 270.48C646.572 267.536 646.412 264.976 646.092 262.8C645.772 260.56 645.132 258.736 644.172 257.328C643.276 255.856 641.996 254.768 640.332 254.064C638.732 253.296 636.62 252.912 633.996 252.912C631.5 252.912 629.484 253.296 627.948 254.064C626.412 254.768 625.196 255.856 624.299 257.328C623.404 258.8 622.796 260.624 622.476 262.8C622.156 264.976 621.996 267.536 621.996 270.48C621.996 273.424 622.156 275.984 622.476 278.16C622.796 280.336 623.404 282.16 624.299 283.632C625.196 285.104 626.412 286.224 627.948 286.992C629.484 287.696 631.5 288.048 633.996 288.048C636.62 288.048 638.732 287.696 640.332 286.992C641.996 286.288 643.276 285.232 644.172 283.824C645.132 282.352 645.772 280.528 646.092 278.352C646.412 276.112 646.572 273.488 646.572 270.48ZM703.205 270.192C703.205 274.16 702.917 277.68 702.341 280.752C701.765 283.824 700.741 286.416 699.269 288.528C697.861 290.576 695.941 292.144 693.509 293.232C691.141 294.32 688.101 294.864 684.389 294.864C682.597 294.864 680.581 294.672 678.341 294.288C676.101 293.904 673.701 293.2 671.141 292.176L671.045 292.272V309.072C671.045 309.712 670.917 310.16 670.661 310.416C670.469 310.736 670.021 310.896 669.317 310.896H665.381C664.677 310.896 664.229 310.768 664.037 310.512C663.845 310.256 663.749 309.776 663.749 309.072V248.88C663.749 247.792 664.293 247.248 665.381 247.248H669.317C670.405 247.248 670.949 247.792 670.949 248.88V252.336L671.237 252.528C671.941 252.08 672.869 251.504 674.021 250.8C675.237 250.096 676.581 249.424 678.053 248.784C679.525 248.144 681.061 247.6 682.661 247.152C684.325 246.64 685.957 246.384 687.557 246.384C690.565 246.384 693.061 246.928 695.045 248.016C697.093 249.04 698.693 250.576 699.845 252.624C701.061 254.608 701.925 257.072 702.437 260.016C702.949 262.96 703.205 266.352 703.205 270.192ZM695.621 269.904C695.621 266.256 695.429 263.344 695.045 261.168C694.725 258.928 694.181 257.2 693.413 255.984C692.709 254.768 691.813 253.968 690.725 253.584C689.637 253.2 688.357 253.008 686.885 253.008C685.733 253.008 684.389 253.2 682.853 253.584C681.381 253.968 679.909 254.448 678.437 255.024C676.965 255.6 675.557 256.208 674.213 256.848C672.933 257.488 671.877 258.032 671.045 258.48V286.128C673.733 286.896 676.197 287.44 678.437 287.76C680.677 288.08 682.821 288.24 684.869 288.24C686.917 288.24 688.613 287.952 689.957 287.376C691.365 286.736 692.485 285.712 693.317 284.304C694.149 282.832 694.725 280.944 695.045 278.64C695.429 276.272 695.621 273.36 695.621 269.904ZM749.577 267.504C749.641 269.04 749.385 270.352 748.809 271.44C748.297 272.464 747.145 272.976 745.353 272.976H718.281C718.345 275.856 718.601 278.288 719.049 280.272C719.497 282.192 720.233 283.76 721.257 284.976C722.281 286.128 723.561 286.96 725.097 287.472C726.697 287.92 728.617 288.144 730.857 288.144C731.817 288.144 732.905 288.112 734.121 288.048C735.337 287.92 736.553 287.824 737.769 287.76C738.985 287.632 740.137 287.504 741.225 287.376C742.377 287.248 743.369 287.12 744.201 286.992C744.841 286.928 745.321 286.96 745.641 287.088C746.025 287.216 746.281 287.6 746.409 288.24L746.793 290.352C746.985 291.248 746.633 291.888 745.737 292.272C744.841 292.656 743.753 293.008 742.473 293.328C741.193 293.648 739.849 293.904 738.441 294.096C737.033 294.352 735.625 294.544 734.217 294.672C732.809 294.8 731.529 294.864 730.377 294.864C725.961 294.864 722.441 294.192 719.817 292.848C717.257 291.44 715.305 289.616 713.961 287.376C712.617 285.136 711.721 282.576 711.273 279.696C710.889 276.752 710.697 273.744 710.697 270.672C710.697 268.368 710.889 265.808 711.273 262.992C711.657 260.112 712.521 257.456 713.865 255.024C715.209 252.528 717.161 250.448 719.721 248.784C722.281 247.12 725.769 246.288 730.185 246.288C734.281 246.288 737.577 246.896 740.073 248.112C742.569 249.328 744.489 250.928 745.833 252.912C747.241 254.896 748.169 257.168 748.617 259.728C749.129 262.288 749.449 264.88 749.577 267.504ZM741.801 266.928C741.801 265.264 741.641 263.6 741.321 261.936C741.065 260.208 740.521 258.672 739.689 257.328C738.857 255.984 737.673 254.896 736.137 254.064C734.601 253.232 732.553 252.816 729.993 252.816C727.881 252.816 726.089 253.168 724.617 253.872C723.209 254.512 722.057 255.44 721.161 256.656C720.265 257.872 719.593 259.344 719.145 261.072C718.697 262.8 718.409 264.752 718.281 266.928H741.801ZM784.834 251.952C785.026 253.104 784.61 253.744 783.586 253.872C782.306 254.128 780.898 254.48 779.362 254.928C777.826 255.312 776.322 255.728 774.85 256.176C773.442 256.56 772.13 256.976 770.914 257.424C769.698 257.808 768.802 258.16 768.226 258.48V292.368C768.226 293.456 767.682 294 766.594 294H762.466C761.442 294 760.93 293.456 760.93 292.368V248.88C760.93 247.792 761.442 247.248 762.466 247.248H766.498C767.65 247.248 768.226 247.792 768.226 248.88V252.816L768.418 253.008C769.058 252.496 769.922 251.952 771.01 251.376C772.162 250.736 773.41 250.128 774.754 249.552C776.098 248.912 777.474 248.368 778.882 247.92C780.29 247.408 781.602 247.024 782.818 246.768C783.394 246.64 783.778 246.672 783.97 246.864C784.162 246.992 784.322 247.344 784.45 247.92L784.834 251.952Z" fill="white"/>
</svg>
