<svg width="470" height="470" viewBox="0 0 470 470" fill="none" xmlns="http://www.w3.org/2000/svg">
<path d="M66.68 108V92.352H72.224C73.328 92.352 74.336 92.504 75.248 92.808C76.16 93.096 76.888 93.6 77.432 94.32C77.992 95.024 78.272 95.992 78.272 97.224C78.272 98.424 77.992 99.4 77.432 100.152C76.888 100.904 76.16 101.464 75.248 101.832C74.336 102.184 73.328 102.36 72.224 102.36H70.208V108H66.68ZM70.208 99.552H71.936C72.864 99.552 73.568 99.36 74.048 98.976C74.544 98.576 74.792 97.992 74.792 97.224C74.792 96.456 74.544 95.92 74.048 95.616C73.568 95.312 72.864 95.16 71.936 95.16H70.208V99.552ZM71.576 101.448L74.024 99.168L79.016 108H75.056L71.576 101.448ZM87.3106 108.288C86.0786 108.288 84.9586 108.048 83.9506 107.568C82.9586 107.072 82.1666 106.36 81.5746 105.432C80.9986 104.488 80.7106 103.36 80.7106 102.048C80.7106 100.752 81.0066 99.64 81.5986 98.712C82.1906 97.768 82.9586 97.048 83.9026 96.552C84.8466 96.056 85.8466 95.808 86.9026 95.808C88.1346 95.808 89.1666 96.064 89.9986 96.576C90.8306 97.072 91.4546 97.752 91.8706 98.616C92.3026 99.464 92.5186 100.432 92.5186 101.52C92.5186 101.84 92.4946 102.152 92.4466 102.456C92.4146 102.744 92.3826 102.96 92.3506 103.104H83.3266V100.728H89.9746L89.4226 101.4C89.4226 100.44 89.2146 99.72 88.7986 99.24C88.3986 98.744 87.8066 98.496 87.0226 98.496C86.4466 98.496 85.9426 98.624 85.5106 98.88C85.0786 99.136 84.7426 99.528 84.5026 100.056C84.2626 100.584 84.1426 101.248 84.1426 102.048C84.1426 102.864 84.2866 103.536 84.5746 104.064C84.8626 104.576 85.2786 104.96 85.8226 105.216C86.3666 105.472 87.0226 105.6 87.7906 105.6C88.3346 105.6 88.8466 105.528 89.3266 105.384C89.8226 105.24 90.3346 105.032 90.8626 104.76L92.0386 106.896C91.3506 107.328 90.5906 107.672 89.7586 107.928C88.9266 108.168 88.1106 108.288 87.3106 108.288ZM100.885 108.288C99.8293 108.288 98.7813 108.112 97.7413 107.76C96.7013 107.392 95.8053 106.96 95.0533 106.464L96.5653 104.256C97.2853 104.72 98.0453 105.072 98.8453 105.312C99.6613 105.552 100.501 105.672 101.365 105.672C102.021 105.672 102.501 105.576 102.805 105.384C103.109 105.176 103.261 104.936 103.261 104.664C103.261 104.488 103.213 104.344 103.117 104.232C103.037 104.104 102.885 103.992 102.661 103.896C102.453 103.784 102.157 103.68 101.773 103.584C101.405 103.488 100.925 103.376 100.333 103.248C98.7173 102.896 97.5573 102.416 96.8533 101.808C96.1493 101.2 95.7973 100.44 95.7973 99.528C95.7973 98.408 96.2853 97.512 97.2613 96.84C98.2373 96.152 99.5733 95.808 101.269 95.808C102.341 95.808 103.309 95.984 104.173 96.336C105.053 96.672 105.805 97.04 106.429 97.44L104.845 99.552C104.253 99.184 103.621 98.904 102.949 98.712C102.277 98.52 101.613 98.424 100.957 98.424C100.589 98.424 100.285 98.464 100.045 98.544C99.8053 98.608 99.6213 98.72 99.4933 98.88C99.3653 99.024 99.3013 99.184 99.3013 99.36C99.3013 99.68 99.5093 99.92 99.9253 100.08C100.341 100.224 101.053 100.408 102.061 100.632C103.277 100.904 104.229 101.216 104.917 101.568C105.605 101.92 106.077 102.328 106.333 102.792C106.605 103.24 106.741 103.792 106.741 104.448C106.741 105.168 106.517 105.816 106.069 106.392C105.637 106.968 104.981 107.432 104.101 107.784C103.237 108.12 102.165 108.288 100.885 108.288ZM109.9 112.416V96.096H112.78L113.044 97.296H113.116C113.612 96.864 114.164 96.512 114.772 96.24C115.396 95.952 116.028 95.808 116.668 95.808C117.66 95.808 118.508 96.056 119.212 96.552C119.932 97.048 120.484 97.752 120.868 98.664C121.252 99.576 121.444 100.64 121.444 101.856C121.444 103.216 121.196 104.376 120.7 105.336C120.22 106.296 119.588 107.032 118.804 107.544C118.02 108.04 117.18 108.288 116.284 108.288C115.756 108.288 115.236 108.176 114.724 107.952C114.228 107.728 113.772 107.408 113.356 106.992H113.26L113.428 108.936V112.416H109.9ZM115.468 105.408C115.916 105.408 116.316 105.288 116.668 105.048C117.02 104.808 117.3 104.432 117.508 103.92C117.716 103.392 117.82 102.72 117.82 101.904C117.82 101.184 117.74 100.592 117.58 100.128C117.42 99.648 117.18 99.288 116.86 99.048C116.556 98.808 116.148 98.688 115.636 98.688C115.252 98.688 114.876 98.776 114.508 98.952C114.156 99.112 113.796 99.392 113.428 99.792V104.616C113.764 104.888 114.108 105.088 114.46 105.216C114.828 105.344 115.164 105.408 115.468 105.408ZM129.763 108.288C128.723 108.288 127.739 108.048 126.811 107.568C125.883 107.072 125.131 106.36 124.555 105.432C123.979 104.488 123.691 103.36 123.691 102.048C123.691 100.736 123.979 99.616 124.555 98.688C125.131 97.744 125.883 97.032 126.811 96.552C127.739 96.056 128.723 95.808 129.763 95.808C130.803 95.808 131.787 96.056 132.715 96.552C133.643 97.032 134.395 97.744 134.971 98.688C135.547 99.616 135.835 100.736 135.835 102.048C135.835 103.36 135.547 104.488 134.971 105.432C134.395 106.36 133.643 107.072 132.715 107.568C131.787 108.048 130.803 108.288 129.763 108.288ZM129.763 105.432C130.307 105.432 130.755 105.296 131.107 105.024C131.475 104.752 131.747 104.36 131.923 103.848C132.115 103.336 132.211 102.736 132.211 102.048C132.211 101.36 132.115 100.76 131.923 100.248C131.747 99.736 131.475 99.344 131.107 99.072C130.755 98.8 130.307 98.664 129.763 98.664C129.219 98.664 128.763 98.8 128.395 99.072C128.043 99.344 127.771 99.736 127.579 100.248C127.403 100.76 127.315 101.36 127.315 102.048C127.315 102.736 127.403 103.336 127.579 103.848C127.771 104.36 128.043 104.752 128.395 105.024C128.763 105.296 129.219 105.432 129.763 105.432ZM138.681 108V96.096H141.561L141.825 97.68H141.921C142.433 97.168 143.017 96.728 143.673 96.36C144.345 95.992 145.129 95.808 146.025 95.808C147.369 95.808 148.353 96.24 148.977 97.104C149.601 97.968 149.913 99.152 149.913 100.656V108H146.385V101.112C146.385 100.312 146.249 99.728 145.977 99.36C145.721 98.992 145.273 98.808 144.633 98.808C144.153 98.808 143.729 98.92 143.361 99.144C143.009 99.352 142.625 99.656 142.209 100.056V108H138.681ZM158.448 108.288C157.392 108.288 156.344 108.112 155.304 107.76C154.264 107.392 153.368 106.96 152.616 106.464L154.128 104.256C154.848 104.72 155.608 105.072 156.408 105.312C157.224 105.552 158.064 105.672 158.928 105.672C159.584 105.672 160.064 105.576 160.368 105.384C160.672 105.176 160.824 104.936 160.824 104.664C160.824 104.488 160.776 104.344 160.68 104.232C160.6 104.104 160.448 103.992 160.224 103.896C160.016 103.784 159.72 103.68 159.336 103.584C158.968 103.488 158.488 103.376 157.896 103.248C156.28 102.896 155.12 102.416 154.416 101.808C153.712 101.2 153.36 100.44 153.36 99.528C153.36 98.408 153.848 97.512 154.824 96.84C155.8 96.152 157.136 95.808 158.832 95.808C159.904 95.808 160.872 95.984 161.736 96.336C162.616 96.672 163.368 97.04 163.992 97.44L162.408 99.552C161.816 99.184 161.184 98.904 160.512 98.712C159.84 98.52 159.176 98.424 158.52 98.424C158.152 98.424 157.848 98.464 157.608 98.544C157.368 98.608 157.184 98.72 157.056 98.88C156.928 99.024 156.864 99.184 156.864 99.36C156.864 99.68 157.072 99.92 157.488 100.08C157.904 100.224 158.616 100.408 159.624 100.632C160.84 100.904 161.792 101.216 162.48 101.568C163.168 101.92 163.64 102.328 163.896 102.792C164.168 103.24 164.304 103.792 164.304 104.448C164.304 105.168 164.08 105.816 163.632 106.392C163.2 106.968 162.544 107.432 161.664 107.784C160.8 108.12 159.728 108.288 158.448 108.288ZM172.406 108V98.856H167.606V96.096H175.934V108H172.406ZM174.014 94.224C173.342 94.224 172.782 94.032 172.334 93.648C171.886 93.248 171.662 92.728 171.662 92.088C171.662 91.432 171.886 90.904 172.334 90.504C172.782 90.088 173.342 89.88 174.014 89.88C174.702 89.88 175.262 90.088 175.694 90.504C176.142 90.904 176.366 91.432 176.366 92.088C176.366 92.728 176.142 93.248 175.694 93.648C175.262 94.032 174.702 94.224 174.014 94.224ZM185.357 108L180.869 96.096H184.421L186.293 101.712C186.485 102.304 186.669 102.904 186.845 103.512C187.021 104.12 187.197 104.744 187.373 105.384H187.469C187.645 104.744 187.813 104.12 187.973 103.512C188.149 102.904 188.333 102.304 188.525 101.712L190.397 96.096H193.781L189.413 108H185.357ZM202.436 108.288C201.204 108.288 200.084 108.048 199.076 107.568C198.084 107.072 197.292 106.36 196.7 105.432C196.124 104.488 195.836 103.36 195.836 102.048C195.836 100.752 196.132 99.64 196.724 98.712C197.316 97.768 198.084 97.048 199.028 96.552C199.972 96.056 200.972 95.808 202.028 95.808C203.26 95.808 204.292 96.064 205.124 96.576C205.956 97.072 206.58 97.752 206.996 98.616C207.428 99.464 207.644 100.432 207.644 101.52C207.644 101.84 207.62 102.152 207.572 102.456C207.54 102.744 207.508 102.96 207.476 103.104H198.452V100.728H205.1L204.548 101.4C204.548 100.44 204.34 99.72 203.924 99.24C203.524 98.744 202.932 98.496 202.148 98.496C201.572 98.496 201.068 98.624 200.636 98.88C200.204 99.136 199.868 99.528 199.628 100.056C199.388 100.584 199.268 101.248 199.268 102.048C199.268 102.864 199.412 103.536 199.7 104.064C199.988 104.576 200.404 104.96 200.948 105.216C201.492 105.472 202.148 105.6 202.916 105.6C203.46 105.6 203.972 105.528 204.452 105.384C204.948 105.24 205.46 105.032 205.988 104.76L207.164 106.896C206.476 107.328 205.716 107.672 204.884 107.928C204.052 108.168 203.236 108.288 202.436 108.288ZM224.977 108V92.352H229.297C230.817 92.352 232.137 92.624 233.257 93.168C234.393 93.712 235.273 94.56 235.897 95.712C236.521 96.848 236.833 98.312 236.833 100.104C236.833 101.896 236.521 103.376 235.897 104.544C235.289 105.712 234.433 106.584 233.329 107.16C232.225 107.72 230.953 108 229.513 108H224.977ZM228.529 105.144H229.105C229.937 105.144 230.657 104.984 231.265 104.664C231.873 104.344 232.345 103.816 232.681 103.08C233.033 102.344 233.209 101.352 233.209 100.104C233.209 98.856 233.033 97.88 232.681 97.176C232.345 96.456 231.873 95.952 231.265 95.664C230.657 95.36 229.937 95.208 229.105 95.208H228.529V105.144ZM245.608 108.288C244.376 108.288 243.256 108.048 242.248 107.568C241.256 107.072 240.464 106.36 239.872 105.432C239.296 104.488 239.008 103.36 239.008 102.048C239.008 100.752 239.304 99.64 239.896 98.712C240.488 97.768 241.256 97.048 242.2 96.552C243.144 96.056 244.144 95.808 245.2 95.808C246.432 95.808 247.464 96.064 248.296 96.576C249.128 97.072 249.752 97.752 250.168 98.616C250.6 99.464 250.816 100.432 250.816 101.52C250.816 101.84 250.792 102.152 250.744 102.456C250.712 102.744 250.68 102.96 250.648 103.104H241.624V100.728H248.272L247.72 101.4C247.72 100.44 247.512 99.72 247.096 99.24C246.696 98.744 246.104 98.496 245.32 98.496C244.744 98.496 244.24 98.624 243.808 98.88C243.376 99.136 243.04 99.528 242.8 100.056C242.56 100.584 242.44 101.248 242.44 102.048C242.44 102.864 242.584 103.536 242.872 104.064C243.16 104.576 243.576 104.96 244.12 105.216C244.664 105.472 245.32 105.6 246.088 105.6C246.632 105.6 247.144 105.528 247.624 105.384C248.12 105.24 248.632 105.032 249.16 104.76L250.336 106.896C249.648 107.328 248.888 107.672 248.056 107.928C247.224 108.168 246.408 108.288 245.608 108.288ZM259.182 108.288C258.126 108.288 257.078 108.112 256.038 107.76C254.998 107.392 254.102 106.96 253.35 106.464L254.862 104.256C255.582 104.72 256.342 105.072 257.142 105.312C257.958 105.552 258.798 105.672 259.662 105.672C260.318 105.672 260.798 105.576 261.102 105.384C261.406 105.176 261.558 104.936 261.558 104.664C261.558 104.488 261.51 104.344 261.414 104.232C261.334 104.104 261.182 103.992 260.958 103.896C260.75 103.784 260.454 103.68 260.07 103.584C259.702 103.488 259.222 103.376 258.63 103.248C257.014 102.896 255.854 102.416 255.15 101.808C254.446 101.2 254.094 100.44 254.094 99.528C254.094 98.408 254.582 97.512 255.558 96.84C256.534 96.152 257.87 95.808 259.566 95.808C260.638 95.808 261.606 95.984 262.47 96.336C263.35 96.672 264.102 97.04 264.726 97.44L263.142 99.552C262.55 99.184 261.918 98.904 261.246 98.712C260.574 98.52 259.91 98.424 259.254 98.424C258.886 98.424 258.582 98.464 258.342 98.544C258.102 98.608 257.918 98.72 257.79 98.88C257.662 99.024 257.598 99.184 257.598 99.36C257.598 99.68 257.806 99.92 258.222 100.08C258.638 100.224 259.35 100.408 260.358 100.632C261.574 100.904 262.526 101.216 263.214 101.568C263.902 101.92 264.374 102.328 264.63 102.792C264.902 103.24 265.038 103.792 265.038 104.448C265.038 105.168 264.814 105.816 264.366 106.392C263.934 106.968 263.278 107.432 262.398 107.784C261.534 108.12 260.462 108.288 259.182 108.288ZM273.141 108V98.856H268.341V96.096H276.669V108H273.141ZM274.749 94.224C274.077 94.224 273.517 94.032 273.069 93.648C272.621 93.248 272.397 92.728 272.397 92.088C272.397 91.432 272.621 90.904 273.069 90.504C273.517 90.088 274.077 89.88 274.749 89.88C275.437 89.88 275.997 90.088 276.429 90.504C276.877 90.904 277.101 91.432 277.101 92.088C277.101 92.728 276.877 93.248 276.429 93.648C275.997 94.032 275.437 94.224 274.749 94.224ZM287.507 113.064C286.467 113.064 285.539 112.952 284.723 112.728C283.923 112.52 283.283 112.192 282.803 111.744C282.339 111.296 282.107 110.72 282.107 110.016C282.107 109.536 282.259 109.096 282.563 108.696C282.883 108.296 283.347 107.944 283.955 107.64V107.544C283.619 107.32 283.331 107.048 283.091 106.728C282.867 106.408 282.755 106 282.755 105.504C282.755 105.104 282.883 104.704 283.139 104.304C283.411 103.904 283.755 103.56 284.171 103.272V103.176C283.739 102.888 283.371 102.48 283.067 101.952C282.763 101.424 282.611 100.816 282.611 100.128C282.611 99.168 282.843 98.368 283.307 97.728C283.787 97.088 284.411 96.608 285.179 96.288C285.963 95.968 286.803 95.808 287.699 95.808C288.435 95.808 289.091 95.904 289.667 96.096H294.491V98.688H292.091C292.235 98.864 292.355 99.096 292.451 99.384C292.563 99.656 292.619 99.944 292.619 100.248C292.619 101.16 292.395 101.912 291.947 102.504C291.515 103.08 290.931 103.512 290.195 103.8C289.459 104.088 288.627 104.232 287.699 104.232C287.475 104.232 287.219 104.216 286.931 104.184C286.643 104.136 286.355 104.072 286.067 103.992C285.875 104.12 285.739 104.248 285.659 104.376C285.579 104.504 285.539 104.672 285.539 104.88C285.539 105.184 285.699 105.408 286.019 105.552C286.355 105.696 286.867 105.768 287.555 105.768H289.763C291.331 105.768 292.523 106 293.339 106.464C294.171 106.928 294.587 107.696 294.587 108.768C294.587 109.6 294.299 110.336 293.723 110.976C293.147 111.632 292.323 112.144 291.251 112.512C290.195 112.88 288.947 113.064 287.507 113.064ZM287.699 102.096C288.035 102.096 288.339 102.024 288.611 101.88C288.883 101.736 289.099 101.52 289.259 101.232C289.419 100.928 289.499 100.56 289.499 100.128C289.499 99.712 289.419 99.36 289.259 99.072C289.099 98.784 288.883 98.568 288.611 98.424C288.339 98.264 288.035 98.184 287.699 98.184C287.379 98.184 287.083 98.264 286.811 98.424C286.539 98.568 286.323 98.784 286.163 99.072C286.003 99.36 285.923 99.712 285.923 100.128C285.923 100.56 286.003 100.928 286.163 101.232C286.323 101.52 286.539 101.736 286.811 101.88C287.083 102.024 287.379 102.096 287.699 102.096ZM288.011 110.832C288.651 110.832 289.211 110.768 289.691 110.64C290.171 110.512 290.547 110.336 290.819 110.112C291.091 109.904 291.227 109.664 291.227 109.392C291.227 108.992 291.051 108.736 290.699 108.624C290.347 108.528 289.827 108.48 289.139 108.48H287.651C287.219 108.48 286.859 108.464 286.571 108.432C286.299 108.4 286.051 108.36 285.827 108.312C285.523 108.504 285.307 108.688 285.179 108.864C285.051 109.056 284.987 109.264 284.987 109.488C284.987 109.92 285.259 110.248 285.803 110.472C286.347 110.712 287.083 110.832 288.011 110.832ZM296.978 108V96.096H299.858L300.122 97.68H300.218C300.73 97.168 301.314 96.728 301.97 96.36C302.642 95.992 303.426 95.808 304.322 95.808C305.666 95.808 306.65 96.24 307.274 97.104C307.898 97.968 308.21 99.152 308.21 100.656V108H304.682V101.112C304.682 100.312 304.546 99.728 304.274 99.36C304.018 98.992 303.57 98.808 302.93 98.808C302.45 98.808 302.026 98.92 301.658 99.144C301.306 99.352 300.922 99.656 300.506 100.056V108H296.978Z" fill="#08FDD8"/>
<path d="M322.488 76.192C321.603 76.192 320.797 75.9947 320.072 75.6C319.347 75.1947 318.771 74.5973 318.344 73.808C317.917 73.008 317.704 72.0213 317.704 70.848C317.704 69.6853 317.917 68.6987 318.344 67.888C318.771 67.0667 319.347 66.4427 320.072 66.016C320.808 65.5893 321.624 65.376 322.52 65.376C323.224 65.376 323.827 65.5147 324.328 65.792C324.829 66.0587 325.245 66.3627 325.576 66.704L324.28 68.16C324.056 67.936 323.811 67.7547 323.544 67.616C323.277 67.4773 322.936 67.408 322.52 67.408C322.072 67.408 321.667 67.5467 321.304 67.824C320.941 68.0907 320.653 68.4747 320.44 68.976C320.237 69.4773 320.136 70.0747 320.136 70.768C320.136 71.4827 320.227 72.096 320.408 72.608C320.589 73.1093 320.867 73.4933 321.24 73.76C321.613 74.0267 322.072 74.16 322.616 74.16C322.819 74.16 323.011 74.1333 323.192 74.08C323.384 74.0267 323.533 73.9467 323.64 73.84V72.048H322.12V70.128H325.752V74.928C325.4 75.2587 324.931 75.552 324.344 75.808C323.768 76.064 323.149 76.192 322.488 76.192ZM327.778 76V74.016H330.21V67.552H327.778V65.568H335.01V67.552H332.578V74.016H335.01V76H327.778ZM339.804 76V67.552H336.684V65.568H345.292V67.552H342.172V76H339.804Z" fill="#08FDD8"/>
<path d="M129.184 235L127.096 219.352H130.768L131.248 227.68C131.248 228.128 131.256 228.568 131.272 229C131.288 229.416 131.296 229.84 131.296 230.272C131.312 230.688 131.32 231.136 131.32 231.616H131.416C131.48 231.136 131.552 230.688 131.632 230.272C131.728 229.84 131.824 229.408 131.92 228.976C132.016 228.544 132.104 228.112 132.184 227.68L133.24 223.312H135.496L136.48 227.68C136.576 228.112 136.664 228.536 136.744 228.952C136.824 229.368 136.912 229.8 137.008 230.248C137.104 230.68 137.184 231.136 137.248 231.616H137.344C137.36 231.136 137.368 230.68 137.368 230.248C137.384 229.8 137.392 229.368 137.392 228.952C137.408 228.536 137.424 228.112 137.44 227.68L137.872 219.352H141.304L139.384 235H135.592L134.68 230.152C134.584 229.656 134.496 229.152 134.416 228.64C134.336 228.128 134.28 227.64 134.248 227.176H134.176C134.128 227.64 134.072 228.128 134.008 228.64C133.944 229.152 133.864 229.656 133.768 230.152L132.856 235H129.184ZM149.311 235.288C148.079 235.288 146.959 235.048 145.951 234.568C144.959 234.072 144.167 233.36 143.575 232.432C142.999 231.488 142.711 230.36 142.711 229.048C142.711 227.752 143.007 226.64 143.599 225.712C144.191 224.768 144.959 224.048 145.903 223.552C146.847 223.056 147.847 222.808 148.903 222.808C150.135 222.808 151.167 223.064 151.999 223.576C152.831 224.072 153.455 224.752 153.871 225.616C154.303 226.464 154.519 227.432 154.519 228.52C154.519 228.84 154.495 229.152 154.447 229.456C154.415 229.744 154.383 229.96 154.351 230.104H145.327V227.728H151.975L151.423 228.4C151.423 227.44 151.215 226.72 150.799 226.24C150.399 225.744 149.807 225.496 149.023 225.496C148.447 225.496 147.943 225.624 147.511 225.88C147.079 226.136 146.743 226.528 146.503 227.056C146.263 227.584 146.143 228.248 146.143 229.048C146.143 229.864 146.287 230.536 146.575 231.064C146.863 231.576 147.279 231.96 147.823 232.216C148.367 232.472 149.023 232.6 149.791 232.6C150.335 232.6 150.847 232.528 151.327 232.384C151.823 232.24 152.335 232.032 152.863 231.76L154.039 233.896C153.351 234.328 152.591 234.672 151.759 234.928C150.927 235.168 150.111 235.288 149.311 235.288ZM163.893 235.288C163.349 235.288 162.789 235.152 162.213 234.88C161.653 234.608 161.133 234.216 160.653 233.704H160.557L160.269 235H157.509V218.176H161.037V222.304L160.917 224.176H160.989C161.453 223.744 161.965 223.408 162.525 223.168C163.101 222.928 163.677 222.808 164.253 222.808C165.261 222.808 166.117 223.056 166.821 223.552C167.541 224.048 168.093 224.752 168.477 225.664C168.861 226.56 169.053 227.616 169.053 228.832C169.053 230.192 168.805 231.36 168.309 232.336C167.829 233.296 167.197 234.032 166.413 234.544C165.629 235.04 164.789 235.288 163.893 235.288ZM163.101 232.408C163.533 232.408 163.925 232.288 164.277 232.048C164.629 231.808 164.909 231.432 165.117 230.92C165.325 230.392 165.429 229.72 165.429 228.904C165.429 228.184 165.349 227.592 165.189 227.128C165.029 226.648 164.789 226.288 164.469 226.048C164.165 225.808 163.757 225.688 163.245 225.688C162.861 225.688 162.485 225.776 162.117 225.952C161.765 226.112 161.405 226.392 161.037 226.792V231.616C161.373 231.888 161.717 232.088 162.069 232.216C162.437 232.344 162.781 232.408 163.101 232.408ZM186.243 235V219.352H190.562C192.083 219.352 193.403 219.624 194.523 220.168C195.659 220.712 196.539 221.56 197.163 222.712C197.787 223.848 198.099 225.312 198.099 227.104C198.099 228.896 197.787 230.376 197.163 231.544C196.555 232.712 195.699 233.584 194.595 234.16C193.491 234.72 192.219 235 190.779 235H186.243ZM189.795 232.144H190.371C191.203 232.144 191.923 231.984 192.531 231.664C193.139 231.344 193.611 230.816 193.947 230.08C194.299 229.344 194.475 228.352 194.475 227.104C194.475 225.856 194.299 224.88 193.947 224.176C193.611 223.456 193.139 222.952 192.531 222.664C191.923 222.36 191.203 222.208 190.371 222.208H189.795V232.144ZM206.873 235.288C205.641 235.288 204.521 235.048 203.513 234.568C202.521 234.072 201.729 233.36 201.137 232.432C200.561 231.488 200.273 230.36 200.273 229.048C200.273 227.752 200.569 226.64 201.161 225.712C201.753 224.768 202.521 224.048 203.465 223.552C204.409 223.056 205.409 222.808 206.465 222.808C207.697 222.808 208.729 223.064 209.561 223.576C210.393 224.072 211.017 224.752 211.433 225.616C211.865 226.464 212.081 227.432 212.081 228.52C212.081 228.84 212.057 229.152 212.009 229.456C211.977 229.744 211.945 229.96 211.913 230.104H202.889V227.728H209.537L208.985 228.4C208.985 227.44 208.777 226.72 208.361 226.24C207.961 225.744 207.369 225.496 206.585 225.496C206.009 225.496 205.505 225.624 205.073 225.88C204.641 226.136 204.305 226.528 204.065 227.056C203.825 227.584 203.705 228.248 203.705 229.048C203.705 229.864 203.849 230.536 204.137 231.064C204.425 231.576 204.841 231.96 205.385 232.216C205.929 232.472 206.585 232.6 207.353 232.6C207.897 232.6 208.409 232.528 208.889 232.384C209.385 232.24 209.897 232.032 210.425 231.76L211.601 233.896C210.913 234.328 210.153 234.672 209.321 234.928C208.489 235.168 207.673 235.288 206.873 235.288ZM218.576 235L214.088 223.096H217.64L219.512 228.712C219.704 229.304 219.888 229.904 220.064 230.512C220.24 231.12 220.416 231.744 220.592 232.384H220.688C220.864 231.744 221.032 231.12 221.192 230.512C221.368 229.904 221.552 229.304 221.744 228.712L223.616 223.096H227L222.632 235H218.576ZM235.654 235.288C234.422 235.288 233.302 235.048 232.294 234.568C231.302 234.072 230.51 233.36 229.918 232.432C229.342 231.488 229.054 230.36 229.054 229.048C229.054 227.752 229.35 226.64 229.942 225.712C230.534 224.768 231.302 224.048 232.246 223.552C233.19 223.056 234.19 222.808 235.246 222.808C236.478 222.808 237.51 223.064 238.342 223.576C239.174 224.072 239.798 224.752 240.214 225.616C240.646 226.464 240.862 227.432 240.862 228.52C240.862 228.84 240.838 229.152 240.79 229.456C240.758 229.744 240.726 229.96 240.694 230.104H231.67V227.728H238.318L237.766 228.4C237.766 227.44 237.558 226.72 237.142 226.24C236.742 225.744 236.15 225.496 235.366 225.496C234.79 225.496 234.286 225.624 233.854 225.88C233.422 226.136 233.086 226.528 232.846 227.056C232.606 227.584 232.486 228.248 232.486 229.048C232.486 229.864 232.63 230.536 232.918 231.064C233.206 231.576 233.622 231.96 234.166 232.216C234.71 232.472 235.366 232.6 236.134 232.6C236.678 232.6 237.19 232.528 237.67 232.384C238.166 232.24 238.678 232.032 239.206 231.76L240.382 233.896C239.694 234.328 238.934 234.672 238.102 234.928C237.27 235.168 236.454 235.288 235.654 235.288ZM251.605 235.288C250.117 235.288 248.989 234.84 248.221 233.944C247.453 233.048 247.069 231.848 247.069 230.344V220.96H243.349V218.2H250.597V230.488C250.597 231.224 250.797 231.736 251.197 232.024C251.597 232.296 252.037 232.432 252.517 232.432C252.805 232.432 253.093 232.4 253.381 232.336C253.685 232.272 254.021 232.176 254.389 232.048L255.157 234.64C254.549 234.832 253.989 234.984 253.477 235.096C252.981 235.224 252.357 235.288 251.605 235.288ZM263.716 235.288C262.676 235.288 261.692 235.048 260.764 234.568C259.836 234.072 259.084 233.36 258.508 232.432C257.932 231.488 257.644 230.36 257.644 229.048C257.644 227.736 257.932 226.616 258.508 225.688C259.084 224.744 259.836 224.032 260.764 223.552C261.692 223.056 262.676 222.808 263.716 222.808C264.756 222.808 265.74 223.056 266.668 223.552C267.596 224.032 268.348 224.744 268.924 225.688C269.5 226.616 269.788 227.736 269.788 229.048C269.788 230.36 269.5 231.488 268.924 232.432C268.348 233.36 267.596 234.072 266.668 234.568C265.74 235.048 264.756 235.288 263.716 235.288ZM263.716 232.432C264.26 232.432 264.708 232.296 265.06 232.024C265.428 231.752 265.7 231.36 265.876 230.848C266.068 230.336 266.164 229.736 266.164 229.048C266.164 228.36 266.068 227.76 265.876 227.248C265.7 226.736 265.428 226.344 265.06 226.072C264.708 225.8 264.26 225.664 263.716 225.664C263.172 225.664 262.716 225.8 262.348 226.072C261.996 226.344 261.724 226.736 261.532 227.248C261.356 227.76 261.268 228.36 261.268 229.048C261.268 229.736 261.356 230.336 261.532 230.848C261.724 231.36 261.996 231.752 262.348 232.024C262.716 232.296 263.172 232.432 263.716 232.432ZM272.634 239.416V223.096H275.514L275.778 224.296H275.85C276.346 223.864 276.898 223.512 277.506 223.24C278.13 222.952 278.762 222.808 279.402 222.808C280.394 222.808 281.242 223.056 281.946 223.552C282.666 224.048 283.218 224.752 283.602 225.664C283.986 226.576 284.178 227.64 284.178 228.856C284.178 230.216 283.93 231.376 283.434 232.336C282.954 233.296 282.322 234.032 281.538 234.544C280.754 235.04 279.914 235.288 279.018 235.288C278.49 235.288 277.97 235.176 277.458 234.952C276.962 234.728 276.506 234.408 276.09 233.992H275.994L276.162 235.936V239.416H272.634ZM278.202 232.408C278.65 232.408 279.05 232.288 279.402 232.048C279.754 231.808 280.034 231.432 280.242 230.92C280.45 230.392 280.554 229.72 280.554 228.904C280.554 228.184 280.474 227.592 280.314 227.128C280.154 226.648 279.914 226.288 279.594 226.048C279.29 225.808 278.882 225.688 278.37 225.688C277.986 225.688 277.61 225.776 277.242 225.952C276.89 226.112 276.53 226.392 276.162 226.792V231.616C276.498 231.888 276.842 232.088 277.194 232.216C277.562 232.344 277.898 232.408 278.202 232.408ZM286.137 235V223.096H288.801L289.041 224.56H289.137C289.361 224.08 289.673 223.672 290.073 223.336C290.473 222.984 291.017 222.808 291.705 222.808C292.217 222.808 292.657 222.976 293.025 223.312C293.393 223.632 293.641 224.112 293.769 224.752C293.993 224.208 294.313 223.752 294.729 223.384C295.161 223 295.721 222.808 296.409 222.808C297.257 222.808 297.913 223.152 298.377 223.84C298.841 224.528 299.073 225.464 299.073 226.648V235H295.713V226.888C295.713 226.168 295.497 225.808 295.065 225.808C294.841 225.808 294.641 225.904 294.465 226.096C294.305 226.272 294.145 226.56 293.985 226.96V235H291.225V226.888C291.225 226.52 291.169 226.248 291.057 226.072C290.945 225.896 290.777 225.808 290.553 225.808C290.329 225.808 290.137 225.904 289.977 226.096C289.817 226.272 289.657 226.56 289.497 226.96V235H286.137ZM307.608 235.288C306.376 235.288 305.256 235.048 304.248 234.568C303.256 234.072 302.464 233.36 301.872 232.432C301.296 231.488 301.008 230.36 301.008 229.048C301.008 227.752 301.304 226.64 301.896 225.712C302.488 224.768 303.256 224.048 304.2 223.552C305.144 223.056 306.144 222.808 307.2 222.808C308.432 222.808 309.464 223.064 310.296 223.576C311.128 224.072 311.752 224.752 312.168 225.616C312.6 226.464 312.816 227.432 312.816 228.52C312.816 228.84 312.792 229.152 312.744 229.456C312.712 229.744 312.68 229.96 312.648 230.104H303.624V227.728H310.272L309.72 228.4C309.72 227.44 309.512 226.72 309.096 226.24C308.696 225.744 308.104 225.496 307.32 225.496C306.744 225.496 306.24 225.624 305.808 225.88C305.376 226.136 305.04 226.528 304.8 227.056C304.56 227.584 304.44 228.248 304.44 229.048C304.44 229.864 304.584 230.536 304.872 231.064C305.16 231.576 305.576 231.96 306.12 232.216C306.664 232.472 307.32 232.6 308.088 232.6C308.632 232.6 309.144 232.528 309.624 232.384C310.12 232.24 310.632 232.032 311.16 231.76L312.336 233.896C311.648 234.328 310.888 234.672 310.056 234.928C309.224 235.168 308.408 235.288 307.608 235.288ZM315.806 235V223.096H318.686L318.95 224.68H319.046C319.558 224.168 320.142 223.728 320.798 223.36C321.47 222.992 322.254 222.808 323.15 222.808C324.494 222.808 325.478 223.24 326.102 224.104C326.726 224.968 327.038 226.152 327.038 227.656V235H323.51V228.112C323.51 227.312 323.374 226.728 323.102 226.36C322.846 225.992 322.398 225.808 321.758 225.808C321.278 225.808 320.854 225.92 320.486 226.144C320.134 226.352 319.75 226.656 319.334 227.056V235H315.806ZM337.781 235.288C336.517 235.288 335.509 235.072 334.757 234.64C334.021 234.192 333.485 233.576 333.149 232.792C332.813 232.008 332.645 231.096 332.645 230.056V225.856H329.669V223.24L332.813 223.096L333.269 219.448H336.173V223.096H341.213V225.856H336.173V230.032C336.173 230.624 336.261 231.104 336.437 231.472C336.613 231.84 336.885 232.112 337.253 232.288C337.621 232.448 338.093 232.528 338.669 232.528C339.133 232.528 339.557 232.488 339.941 232.408C340.325 232.328 340.693 232.224 341.045 232.096L341.669 234.64C341.141 234.8 340.557 234.944 339.917 235.072C339.293 235.216 338.581 235.288 337.781 235.288Z" fill="#08FDD8"/>
<path d="M47.2375 253.5C46.175 253.5 45.3073 253.164 44.6344 252.491C43.9615 251.818 43.625 250.95 43.625 249.888V245H48.725V248.4H59.775V242.769H47.2375C46.2458 242.769 45.3958 242.415 44.6875 241.706C43.9792 240.998 43.625 240.148 43.625 239.156V231.613C43.625 230.55 43.9615 229.682 44.6344 229.009C45.3073 228.336 46.175 228 47.2375 228H61.2625C62.325 228 63.1927 228.336 63.8656 229.009C64.5385 229.682 64.875 230.55 64.875 231.613V236.5H59.775V233.1H48.725V238.731H61.2625C62.2542 238.731 63.1042 239.085 63.8125 239.794C64.5208 240.502 64.875 241.352 64.875 242.344V249.888C64.875 250.95 64.5385 251.818 63.8656 252.491C63.1927 253.164 62.325 253.5 61.2625 253.5H47.2375ZM74.8625 253.5C73.8 253.5 72.9323 253.164 72.2594 252.491C71.5865 251.818 71.25 250.95 71.25 249.888V245H76.35V248.4H87.4V242.769H74.8625C73.8708 242.769 73.0208 242.415 72.3125 241.706C71.6042 240.998 71.25 240.148 71.25 239.156V231.613C71.25 230.55 71.5865 229.682 72.2594 229.009C72.9323 228.336 73.8 228 74.8625 228H88.8875C89.95 228 90.8177 228.336 91.4906 229.009C92.1635 229.682 92.5 230.55 92.5 231.613V236.5H87.4V233.1H76.35V238.731H88.8875C89.8792 238.731 90.7292 239.085 91.4375 239.794C92.1458 240.502 92.5 241.352 92.5 242.344V249.888C92.5 250.95 92.1635 251.818 91.4906 252.491C90.8177 253.164 89.95 253.5 88.8875 253.5H74.8625ZM19.6125 253.5C18.55 253.5 17.6823 253.164 17.0094 252.491C16.3365 251.818 16 250.95 16 249.888V231.613C16 230.55 16.3365 229.682 17.0094 229.009C17.6823 228.336 18.55 228 19.6125 228H33.6375C34.7 228 35.5677 228.336 36.2406 229.009C36.9135 229.682 37.25 230.55 37.25 231.613V236.5H32.15V233.1H21.1V248.4H32.15V245H37.25V249.888C37.25 250.95 36.9135 251.818 36.2406 252.491C35.5677 253.164 34.7 253.5 33.6375 253.5H19.6125Z" fill="#08FDD8"/>
<path d="M40.208 294V278.352H50.576V281.328H43.76V284.472H49.544V287.424H43.76V291.024H50.816V294H40.208ZM54.1186 294V282.096H56.9986L57.2626 283.68H57.3586C57.8706 283.168 58.4546 282.728 59.1106 282.36C59.7826 281.992 60.5666 281.808 61.4626 281.808C62.8066 281.808 63.7906 282.24 64.4146 283.104C65.0386 283.968 65.3506 285.152 65.3506 286.656V294H61.8226V287.112C61.8226 286.312 61.6866 285.728 61.4146 285.36C61.1586 284.992 60.7106 284.808 60.0706 284.808C59.5906 284.808 59.1666 284.92 58.7986 285.144C58.4466 285.352 58.0626 285.656 57.6466 286.056V294H54.1186ZM73.8853 294.288C72.8293 294.288 71.7813 294.112 70.7413 293.76C69.7013 293.392 68.8053 292.96 68.0533 292.464L69.5653 290.256C70.2853 290.72 71.0453 291.072 71.8453 291.312C72.6613 291.552 73.5013 291.672 74.3653 291.672C75.0213 291.672 75.5013 291.576 75.8053 291.384C76.1093 291.176 76.2613 290.936 76.2613 290.664C76.2613 290.488 76.2133 290.344 76.1173 290.232C76.0373 290.104 75.8853 289.992 75.6613 289.896C75.4533 289.784 75.1573 289.68 74.7733 289.584C74.4053 289.488 73.9253 289.376 73.3333 289.248C71.7173 288.896 70.5573 288.416 69.8533 287.808C69.1493 287.2 68.7973 286.44 68.7973 285.528C68.7973 284.408 69.2853 283.512 70.2613 282.84C71.2373 282.152 72.5733 281.808 74.2693 281.808C75.3413 281.808 76.3093 281.984 77.1733 282.336C78.0533 282.672 78.8053 283.04 79.4293 283.44L77.8453 285.552C77.2533 285.184 76.6213 284.904 75.9493 284.712C75.2773 284.52 74.6133 284.424 73.9573 284.424C73.5893 284.424 73.2853 284.464 73.0453 284.544C72.8053 284.608 72.6213 284.72 72.4933 284.88C72.3653 285.024 72.3013 285.184 72.3013 285.36C72.3013 285.68 72.5093 285.92 72.9253 286.08C73.3413 286.224 74.0533 286.408 75.0613 286.632C76.2773 286.904 77.2293 287.216 77.9173 287.568C78.6053 287.92 79.0773 288.328 79.3333 288.792C79.6053 289.24 79.7413 289.792 79.7413 290.448C79.7413 291.168 79.5173 291.816 79.0693 292.392C78.6373 292.968 77.9813 293.432 77.1013 293.784C76.2373 294.12 75.1653 294.288 73.8853 294.288ZM86.5239 294.288C85.1639 294.288 84.1799 293.856 83.5719 292.992C82.9639 292.128 82.6599 290.944 82.6599 289.44V282.096H86.1879V288.984C86.1879 289.784 86.3079 290.368 86.5479 290.736C86.8039 291.104 87.2599 291.288 87.9159 291.288C88.3639 291.288 88.7639 291.192 89.1159 291C89.4679 290.808 89.8439 290.448 90.2439 289.92V282.096H93.7719V294H90.8919L90.6279 292.296H90.5319C90.0039 292.888 89.4199 293.368 88.7799 293.736C88.1399 294.104 87.3879 294.288 86.5239 294.288ZM98.3465 294V282.096H101.227L101.515 284.688H101.587C102.179 283.712 102.891 282.992 103.723 282.528C104.571 282.048 105.467 281.808 106.411 281.808C106.939 281.808 107.363 281.848 107.682 281.928C108.019 282.008 108.363 282.128 108.715 282.288L107.995 285.24C107.627 285.128 107.291 285.048 106.987 285C106.699 284.936 106.331 284.904 105.883 284.904C105.147 284.904 104.419 285.12 103.699 285.552C102.995 285.984 102.387 286.736 101.875 287.808V294H98.3465ZM116.625 294V284.856H111.825V282.096H120.153V294H116.625ZM118.233 280.224C117.561 280.224 117.001 280.032 116.553 279.648C116.105 279.248 115.881 278.728 115.881 278.088C115.881 277.432 116.105 276.904 116.553 276.504C117.001 276.088 117.561 275.88 118.233 275.88C118.921 275.88 119.481 276.088 119.913 276.504C120.361 276.904 120.585 277.432 120.585 278.088C120.585 278.728 120.361 279.248 119.913 279.648C119.481 280.032 118.921 280.224 118.233 280.224ZM126.072 294V282.096H128.952L129.216 283.68H129.312C129.824 283.168 130.408 282.728 131.064 282.36C131.736 281.992 132.52 281.808 133.416 281.808C134.76 281.808 135.744 282.24 136.368 283.104C136.992 283.968 137.304 285.152 137.304 286.656V294H133.776V287.112C133.776 286.312 133.64 285.728 133.368 285.36C133.112 284.992 132.664 284.808 132.024 284.808C131.544 284.808 131.12 284.92 130.752 285.144C130.4 285.352 130.016 285.656 129.6 286.056V294H126.072ZM145.382 299.064C144.342 299.064 143.414 298.952 142.598 298.728C141.798 298.52 141.158 298.192 140.678 297.744C140.214 297.296 139.982 296.72 139.982 296.016C139.982 295.536 140.134 295.096 140.438 294.696C140.758 294.296 141.222 293.944 141.83 293.64V293.544C141.494 293.32 141.206 293.048 140.966 292.728C140.742 292.408 140.63 292 140.63 291.504C140.63 291.104 140.758 290.704 141.014 290.304C141.286 289.904 141.63 289.56 142.046 289.272V289.176C141.614 288.888 141.246 288.48 140.942 287.952C140.638 287.424 140.486 286.816 140.486 286.128C140.486 285.168 140.718 284.368 141.182 283.728C141.662 283.088 142.286 282.608 143.054 282.288C143.838 281.968 144.678 281.808 145.574 281.808C146.31 281.808 146.966 281.904 147.542 282.096H152.366V284.688H149.966C150.11 284.864 150.23 285.096 150.326 285.384C150.438 285.656 150.494 285.944 150.494 286.248C150.494 287.16 150.27 287.912 149.822 288.504C149.39 289.08 148.806 289.512 148.07 289.8C147.334 290.088 146.502 290.232 145.574 290.232C145.35 290.232 145.094 290.216 144.806 290.184C144.518 290.136 144.23 290.072 143.942 289.992C143.75 290.12 143.614 290.248 143.534 290.376C143.454 290.504 143.414 290.672 143.414 290.88C143.414 291.184 143.574 291.408 143.894 291.552C144.23 291.696 144.742 291.768 145.43 291.768H147.638C149.206 291.768 150.398 292 151.214 292.464C152.046 292.928 152.462 293.696 152.462 294.768C152.462 295.6 152.174 296.336 151.598 296.976C151.022 297.632 150.198 298.144 149.126 298.512C148.07 298.88 146.822 299.064 145.382 299.064ZM145.574 288.096C145.91 288.096 146.214 288.024 146.486 287.88C146.758 287.736 146.974 287.52 147.134 287.232C147.294 286.928 147.374 286.56 147.374 286.128C147.374 285.712 147.294 285.36 147.134 285.072C146.974 284.784 146.758 284.568 146.486 284.424C146.214 284.264 145.91 284.184 145.574 284.184C145.254 284.184 144.958 284.264 144.686 284.424C144.414 284.568 144.198 284.784 144.038 285.072C143.878 285.36 143.798 285.712 143.798 286.128C143.798 286.56 143.878 286.928 144.038 287.232C144.198 287.52 144.414 287.736 144.686 287.88C144.958 288.024 145.254 288.096 145.574 288.096ZM145.886 296.832C146.526 296.832 147.086 296.768 147.566 296.64C148.046 296.512 148.422 296.336 148.694 296.112C148.966 295.904 149.102 295.664 149.102 295.392C149.102 294.992 148.926 294.736 148.574 294.624C148.222 294.528 147.702 294.48 147.014 294.48H145.526C145.094 294.48 144.734 294.464 144.446 294.432C144.174 294.4 143.926 294.36 143.702 294.312C143.398 294.504 143.182 294.688 143.054 294.864C142.926 295.056 142.862 295.264 142.862 295.488C142.862 295.92 143.134 296.248 143.678 296.472C144.222 296.712 144.958 296.832 145.886 296.832ZM174.764 294.288C173.804 294.288 172.964 294.152 172.244 293.88C171.54 293.592 170.948 293.184 170.468 292.656C170.004 292.112 169.652 291.456 169.412 290.688C169.172 289.904 169.052 289 169.052 287.976V278.352H172.58V288.336C172.58 288.96 172.66 289.488 172.82 289.92C172.98 290.352 173.22 290.68 173.54 290.904C173.86 291.128 174.268 291.24 174.764 291.24C175.26 291.24 175.668 291.128 175.988 290.904C176.324 290.68 176.572 290.352 176.732 289.92C176.892 289.488 176.972 288.96 176.972 288.336V278.352H180.38V287.976C180.38 289 180.268 289.904 180.044 290.688C179.82 291.456 179.468 292.112 178.988 292.656C178.524 293.184 177.94 293.592 177.236 293.88C176.532 294.152 175.708 294.288 174.764 294.288ZM189.01 294.288C187.954 294.288 186.906 294.112 185.866 293.76C184.826 293.392 183.93 292.96 183.178 292.464L184.69 290.256C185.41 290.72 186.17 291.072 186.97 291.312C187.786 291.552 188.626 291.672 189.49 291.672C190.146 291.672 190.626 291.576 190.93 291.384C191.234 291.176 191.386 290.936 191.386 290.664C191.386 290.488 191.338 290.344 191.242 290.232C191.162 290.104 191.01 289.992 190.786 289.896C190.578 289.784 190.282 289.68 189.898 289.584C189.53 289.488 189.05 289.376 188.458 289.248C186.842 288.896 185.682 288.416 184.978 287.808C184.274 287.2 183.922 286.44 183.922 285.528C183.922 284.408 184.41 283.512 185.386 282.84C186.362 282.152 187.698 281.808 189.394 281.808C190.466 281.808 191.434 281.984 192.298 282.336C193.178 282.672 193.93 283.04 194.554 283.44L192.97 285.552C192.378 285.184 191.746 284.904 191.074 284.712C190.402 284.52 189.738 284.424 189.082 284.424C188.714 284.424 188.41 284.464 188.17 284.544C187.93 284.608 187.746 284.72 187.618 284.88C187.49 285.024 187.426 285.184 187.426 285.36C187.426 285.68 187.634 285.92 188.05 286.08C188.466 286.224 189.178 286.408 190.186 286.632C191.402 286.904 192.354 287.216 193.042 287.568C193.73 287.92 194.202 288.328 194.458 288.792C194.73 289.24 194.866 289.792 194.866 290.448C194.866 291.168 194.642 291.816 194.194 292.392C193.762 292.968 193.106 293.432 192.226 293.784C191.362 294.12 190.29 294.288 189.01 294.288ZM204.217 294.288C202.985 294.288 201.865 294.048 200.857 293.568C199.865 293.072 199.073 292.36 198.481 291.432C197.905 290.488 197.617 289.36 197.617 288.048C197.617 286.752 197.913 285.64 198.505 284.712C199.097 283.768 199.865 283.048 200.809 282.552C201.753 282.056 202.753 281.808 203.809 281.808C205.041 281.808 206.073 282.064 206.905 282.576C207.737 283.072 208.361 283.752 208.777 284.616C209.209 285.464 209.425 286.432 209.425 287.52C209.425 287.84 209.401 288.152 209.353 288.456C209.321 288.744 209.289 288.96 209.257 289.104H200.233V286.728H206.881L206.329 287.4C206.329 286.44 206.121 285.72 205.705 285.24C205.305 284.744 204.713 284.496 203.929 284.496C203.353 284.496 202.849 284.624 202.417 284.88C201.985 285.136 201.649 285.528 201.409 286.056C201.169 286.584 201.049 287.248 201.049 288.048C201.049 288.864 201.193 289.536 201.481 290.064C201.769 290.576 202.185 290.96 202.729 291.216C203.273 291.472 203.929 291.6 204.697 291.6C205.241 291.6 205.753 291.528 206.233 291.384C206.729 291.24 207.241 291.032 207.769 290.76L208.945 292.896C208.257 293.328 207.497 293.672 206.665 293.928C205.833 294.168 205.017 294.288 204.217 294.288ZM213.472 294V282.096H216.352L216.64 284.688H216.712C217.304 283.712 218.016 282.992 218.848 282.528C219.696 282.048 220.592 281.808 221.536 281.808C222.064 281.808 222.488 281.848 222.807 281.928C223.144 282.008 223.488 282.128 223.84 282.288L223.12 285.24C222.752 285.128 222.416 285.048 222.112 285C221.824 284.936 221.456 284.904 221.008 284.904C220.272 284.904 219.544 285.12 218.824 285.552C218.12 285.984 217.512 286.736 217 287.808V294H213.472ZM241.677 294V278.352H252.045V281.328H245.229V284.472H251.013V287.424H245.229V291.024H252.285V294H241.677ZM254.747 294L258.875 287.808L255.011 282.096H258.803L260.027 284.016C260.219 284.352 260.427 284.696 260.651 285.048C260.875 285.384 261.083 285.72 261.275 286.056H261.371C261.515 285.72 261.675 285.376 261.851 285.024C262.043 284.672 262.211 284.336 262.355 284.016L263.411 282.096H267.107L263.219 288.216L267.347 294H263.555L262.187 292.032C261.963 291.696 261.731 291.352 261.491 291C261.267 290.648 261.043 290.304 260.819 289.968H260.723C260.547 290.304 260.363 290.648 260.171 291C259.979 291.336 259.795 291.68 259.619 292.032L258.443 294H254.747ZM269.978 298.416V282.096H272.858L273.122 283.296H273.194C273.69 282.864 274.242 282.512 274.85 282.24C275.474 281.952 276.106 281.808 276.746 281.808C277.738 281.808 278.586 282.056 279.29 282.552C280.01 283.048 280.562 283.752 280.946 284.664C281.33 285.576 281.522 286.64 281.522 287.856C281.522 289.216 281.274 290.376 280.778 291.336C280.298 292.296 279.666 293.032 278.882 293.544C278.098 294.04 277.258 294.288 276.362 294.288C275.834 294.288 275.314 294.176 274.802 293.952C274.306 293.728 273.85 293.408 273.434 292.992H273.338L273.506 294.936V298.416H269.978ZM275.546 291.408C275.994 291.408 276.394 291.288 276.746 291.048C277.098 290.808 277.378 290.432 277.586 289.92C277.794 289.392 277.898 288.72 277.898 287.904C277.898 287.184 277.818 286.592 277.658 286.128C277.498 285.648 277.258 285.288 276.938 285.048C276.634 284.808 276.226 284.688 275.714 284.688C275.33 284.688 274.954 284.776 274.586 284.952C274.234 285.112 273.874 285.392 273.506 285.792V290.616C273.842 290.888 274.186 291.088 274.538 291.216C274.906 291.344 275.242 291.408 275.546 291.408ZM290.561 294.288C289.329 294.288 288.209 294.048 287.201 293.568C286.209 293.072 285.417 292.36 284.825 291.432C284.249 290.488 283.961 289.36 283.961 288.048C283.961 286.752 284.257 285.64 284.849 284.712C285.441 283.768 286.209 283.048 287.153 282.552C288.097 282.056 289.097 281.808 290.153 281.808C291.385 281.808 292.417 282.064 293.249 282.576C294.081 283.072 294.705 283.752 295.121 284.616C295.553 285.464 295.769 286.432 295.769 287.52C295.769 287.84 295.745 288.152 295.697 288.456C295.665 288.744 295.633 288.96 295.601 289.104H286.577V286.728H293.225L292.673 287.4C292.673 286.44 292.465 285.72 292.049 285.24C291.649 284.744 291.057 284.496 290.273 284.496C289.697 284.496 289.193 284.624 288.761 284.88C288.329 285.136 287.993 285.528 287.753 286.056C287.513 286.584 287.393 287.248 287.393 288.048C287.393 288.864 287.537 289.536 287.825 290.064C288.113 290.576 288.529 290.96 289.073 291.216C289.617 291.472 290.273 291.6 291.041 291.6C291.585 291.6 292.097 291.528 292.577 291.384C293.073 291.24 293.585 291.032 294.113 290.76L295.289 292.896C294.601 293.328 293.841 293.672 293.009 293.928C292.177 294.168 291.361 294.288 290.561 294.288ZM299.815 294V282.096H302.695L302.983 284.688H303.055C303.647 283.712 304.359 282.992 305.191 282.528C306.039 282.048 306.935 281.808 307.879 281.808C308.407 281.808 308.831 281.848 309.151 281.928C309.487 282.008 309.831 282.128 310.183 282.288L309.463 285.24C309.095 285.128 308.759 285.048 308.455 285C308.167 284.936 307.799 284.904 307.351 284.904C306.615 284.904 305.887 285.12 305.167 285.552C304.463 285.984 303.855 286.736 303.343 287.808V294H299.815ZM318.094 294V284.856H313.294V282.096H321.622V294H318.094ZM319.702 280.224C319.03 280.224 318.47 280.032 318.022 279.648C317.574 279.248 317.35 278.728 317.35 278.088C317.35 277.432 317.574 276.904 318.022 276.504C318.47 276.088 319.03 275.88 319.702 275.88C320.39 275.88 320.95 276.088 321.382 276.504C321.83 276.904 322.054 277.432 322.054 278.088C322.054 278.728 321.83 279.248 321.382 279.648C320.95 280.032 320.39 280.224 319.702 280.224ZM333.733 294.288C332.501 294.288 331.381 294.048 330.373 293.568C329.381 293.072 328.589 292.36 327.997 291.432C327.421 290.488 327.133 289.36 327.133 288.048C327.133 286.752 327.429 285.64 328.021 284.712C328.613 283.768 329.381 283.048 330.325 282.552C331.269 282.056 332.269 281.808 333.325 281.808C334.557 281.808 335.589 282.064 336.421 282.576C337.253 283.072 337.877 283.752 338.293 284.616C338.725 285.464 338.941 286.432 338.941 287.52C338.941 287.84 338.917 288.152 338.869 288.456C338.837 288.744 338.805 288.96 338.773 289.104H329.749V286.728H336.397L335.845 287.4C335.845 286.44 335.637 285.72 335.221 285.24C334.821 284.744 334.229 284.496 333.445 284.496C332.869 284.496 332.365 284.624 331.933 284.88C331.501 285.136 331.165 285.528 330.925 286.056C330.685 286.584 330.565 287.248 330.565 288.048C330.565 288.864 330.709 289.536 330.997 290.064C331.285 290.576 331.701 290.96 332.245 291.216C332.789 291.472 333.445 291.6 334.213 291.6C334.757 291.6 335.269 291.528 335.749 291.384C336.245 291.24 336.757 291.032 337.285 290.76L338.461 292.896C337.773 293.328 337.013 293.672 336.181 293.928C335.349 294.168 334.533 294.288 333.733 294.288ZM341.931 294V282.096H344.811L345.075 283.68H345.171C345.683 283.168 346.267 282.728 346.923 282.36C347.595 281.992 348.379 281.808 349.275 281.808C350.619 281.808 351.603 282.24 352.227 283.104C352.851 283.968 353.163 285.152 353.163 286.656V294H349.635V287.112C349.635 286.312 349.499 285.728 349.227 285.36C348.971 284.992 348.523 284.808 347.883 284.808C347.403 284.808 346.979 284.92 346.611 285.144C346.259 285.352 345.875 285.656 345.459 286.056V294H341.931ZM362.826 294.288C361.578 294.288 360.45 294.048 359.442 293.568C358.45 293.072 357.658 292.36 357.066 291.432C356.49 290.488 356.202 289.36 356.202 288.048C356.202 286.736 356.522 285.616 357.162 284.688C357.802 283.744 358.642 283.032 359.682 282.552C360.738 282.056 361.874 281.808 363.09 281.808C364.034 281.808 364.89 281.96 365.658 282.264C366.426 282.552 367.058 282.936 367.554 283.416L365.922 285.6C365.458 285.28 365.01 285.048 364.578 284.904C364.162 284.744 363.73 284.664 363.282 284.664C362.61 284.664 362.01 284.8 361.482 285.072C360.954 285.344 360.546 285.736 360.258 286.248C359.97 286.76 359.826 287.36 359.826 288.048C359.826 288.736 359.962 289.336 360.234 289.848C360.522 290.36 360.914 290.752 361.41 291.024C361.922 291.296 362.506 291.432 363.162 291.432C363.786 291.432 364.354 291.32 364.866 291.096C365.394 290.872 365.874 290.608 366.306 290.304L367.722 292.536C367.018 293.128 366.226 293.568 365.346 293.856C364.482 294.144 363.642 294.288 362.826 294.288ZM376.904 294.288C375.672 294.288 374.552 294.048 373.544 293.568C372.552 293.072 371.76 292.36 371.168 291.432C370.592 290.488 370.304 289.36 370.304 288.048C370.304 286.752 370.6 285.64 371.192 284.712C371.784 283.768 372.552 283.048 373.496 282.552C374.44 282.056 375.44 281.808 376.496 281.808C377.728 281.808 378.76 282.064 379.592 282.576C380.424 283.072 381.048 283.752 381.464 284.616C381.896 285.464 382.112 286.432 382.112 287.52C382.112 287.84 382.088 288.152 382.04 288.456C382.008 288.744 381.976 288.96 381.944 289.104H372.92V286.728H379.568L379.016 287.4C379.016 286.44 378.808 285.72 378.392 285.24C377.992 284.744 377.4 284.496 376.616 284.496C376.04 284.496 375.536 284.624 375.104 284.88C374.672 285.136 374.336 285.528 374.096 286.056C373.856 286.584 373.736 287.248 373.736 288.048C373.736 288.864 373.88 289.536 374.168 290.064C374.456 290.576 374.872 290.96 375.416 291.216C375.96 291.472 376.616 291.6 377.384 291.6C377.928 291.6 378.44 291.528 378.92 291.384C379.416 291.24 379.928 291.032 380.456 290.76L381.632 292.896C380.944 293.328 380.184 293.672 379.352 293.928C378.52 294.168 377.704 294.288 376.904 294.288Z" fill="#08FDD8"/>
<path d="M31.6133 188V163.659H40.2373C41.9547 163.659 43.5227 163.895 44.9413 164.368C46.36 164.816 47.4924 165.6 48.3387 166.72C49.2098 167.815 49.6453 169.321 49.6453 171.237C49.6453 173.104 49.2098 174.622 48.3387 175.792C47.4924 176.962 46.36 177.833 44.9413 178.405C43.5227 178.953 41.9547 179.227 40.2373 179.227H37.1013V188H31.6133ZM37.1013 174.859H39.7893C41.2329 174.859 42.328 174.56 43.0747 173.963C43.8462 173.34 44.232 172.432 44.232 171.237C44.232 170.043 43.8462 169.209 43.0747 168.736C42.328 168.263 41.2329 168.027 39.7893 168.027H37.1013V174.859ZM39.2293 177.808L43.0373 174.261L50.8027 188H44.6427L39.2293 177.808ZM54.8201 188V163.659H70.9481V168.288H60.3454V173.179H69.3428V177.771H60.3454V183.371H71.3214V188H54.8201ZM74.1068 188L81.6855 163.659H88.2562L95.8348 188H90.0108L86.8748 175.68C86.5762 174.46 86.2526 173.166 85.9042 171.797C85.5557 170.428 85.2322 169.109 84.9335 167.84H84.7842C84.4855 169.109 84.1744 170.428 83.8508 171.797C83.5273 173.166 83.2037 174.46 82.8802 175.68L79.7068 188H74.1068ZM79.1095 182.213V177.92H90.7575V182.213H79.1095ZM109.447 188.448C107.929 188.448 106.485 188.187 105.116 187.664C103.772 187.141 102.578 186.357 101.532 185.312C100.487 184.242 99.6656 182.935 99.0683 181.392C98.4709 179.824 98.1723 178.02 98.1723 175.979C98.1723 173.291 98.6825 171.001 99.7029 169.109C100.748 167.193 102.142 165.737 103.884 164.741C105.651 163.721 107.618 163.211 109.783 163.211C111.326 163.211 112.72 163.534 113.964 164.181C115.209 164.804 116.242 165.513 117.063 166.309L114.039 169.707C113.466 169.159 112.832 168.736 112.135 168.437C111.463 168.114 110.679 167.952 109.783 167.952C108.638 167.952 107.618 168.276 106.722 168.923C105.826 169.545 105.116 170.441 104.594 171.611C104.071 172.78 103.81 174.174 103.81 175.792C103.81 177.46 104.071 178.891 104.594 180.085C105.116 181.255 105.838 182.151 106.759 182.773C107.705 183.396 108.787 183.707 110.007 183.707C110.903 183.707 111.712 183.508 112.434 183.109C113.155 182.711 113.815 182.188 114.412 181.541L117.436 184.864C116.441 186.034 115.271 186.93 113.927 187.552C112.583 188.149 111.09 188.448 109.447 188.448ZM126.979 188V168.288H119.699V163.659H139.784V168.288H132.504V188H126.979ZM151.119 188.448C149.775 188.448 148.369 188.149 146.9 187.552C145.457 186.955 144.2 185.909 143.13 184.416L146.303 181.019C147 181.89 147.747 182.562 148.543 183.035C149.34 183.483 150.136 183.707 150.932 183.707C152.177 183.707 153.11 183.383 153.732 182.736C154.38 182.089 154.703 180.932 154.703 179.264V168.251H145.183V163.659H160.191V179.712C160.191 181.305 159.892 182.761 159.295 184.08C158.723 185.399 157.777 186.457 156.458 187.253C155.164 188.05 153.384 188.448 151.119 188.448ZM174.438 188.448C172.795 188.448 171.165 188.149 169.547 187.552C167.954 186.955 166.498 186.084 165.179 184.939L168.353 181.168C169.273 181.915 170.281 182.524 171.377 182.997C172.497 183.47 173.641 183.707 174.811 183.707C175.981 183.707 176.84 183.508 177.387 183.109C177.96 182.711 178.246 182.201 178.246 181.579C178.246 181.006 178.097 180.558 177.798 180.235C177.499 179.886 177.064 179.588 176.491 179.339C175.919 179.065 175.247 178.766 174.475 178.443L171.339 177.099C170.443 176.75 169.597 176.29 168.801 175.717C168.004 175.12 167.357 174.398 166.859 173.552C166.386 172.681 166.15 171.648 166.15 170.453C166.15 169.109 166.523 167.902 167.27 166.832C168.041 165.737 169.087 164.866 170.406 164.219C171.75 163.547 173.305 163.211 175.073 163.211C176.541 163.211 177.985 163.484 179.403 164.032C180.822 164.58 182.079 165.376 183.174 166.421L180.374 169.893C179.528 169.271 178.681 168.798 177.835 168.475C176.989 168.126 175.969 167.952 174.774 167.952C173.878 167.952 173.144 168.139 172.571 168.512C171.999 168.885 171.713 169.433 171.713 170.155C171.713 170.628 171.887 171.026 172.235 171.349C172.584 171.673 173.057 171.959 173.654 172.208C174.251 172.457 174.936 172.731 175.707 173.029L178.657 174.299C179.752 174.697 180.685 175.195 181.457 175.792C182.228 176.364 182.825 177.074 183.249 177.92C183.672 178.766 183.883 179.762 183.883 180.907C183.883 182.251 183.51 183.495 182.763 184.64C182.041 185.785 180.971 186.706 179.553 187.403C178.159 188.1 176.454 188.448 174.438 188.448Z" fill="#08FDD8"/>
<path d="M237.763 347V322.659H245.939C247.631 322.659 249.149 322.845 250.493 323.219C251.837 323.567 252.895 324.177 253.667 325.048C254.463 325.919 254.861 327.139 254.861 328.707C254.861 329.802 254.525 330.86 253.853 331.88C253.181 332.9 252.124 333.597 250.68 333.971V334.12C252.422 334.419 253.741 335.041 254.637 335.987C255.533 336.908 255.981 338.189 255.981 339.832C255.981 341.475 255.571 342.831 254.749 343.901C253.928 344.947 252.808 345.731 251.389 346.253C249.996 346.751 248.415 347 246.648 347H237.763ZM243.251 332.44H245.677C247.021 332.44 247.992 332.179 248.589 331.656C249.187 331.108 249.485 330.374 249.485 329.453C249.485 328.557 249.174 327.923 248.552 327.549C247.955 327.151 247.009 326.952 245.715 326.952H243.251V332.44ZM243.251 342.707H246.2C247.693 342.707 248.801 342.433 249.523 341.885C250.244 341.338 250.605 340.516 250.605 339.421C250.605 338.351 250.244 337.58 249.523 337.107C248.801 336.634 247.693 336.397 246.2 336.397H243.251V342.707ZM268.585 347.448C266.644 347.448 264.939 346.963 263.471 345.992C262.002 345.021 260.857 343.603 260.036 341.736C259.215 339.844 258.804 337.505 258.804 334.717C258.804 332.004 259.215 329.727 260.036 327.885C260.857 326.019 262.002 324.612 263.471 323.667C264.939 322.696 266.644 322.211 268.585 322.211C270.527 322.211 272.232 322.696 273.7 323.667C275.169 324.612 276.313 326.019 277.135 327.885C277.956 329.727 278.367 332.004 278.367 334.717C278.367 337.505 277.956 339.844 277.135 341.736C276.313 343.603 275.169 345.021 273.7 345.992C272.232 346.963 270.527 347.448 268.585 347.448ZM268.585 342.707C269.432 342.707 270.166 342.408 270.788 341.811C271.41 341.188 271.883 340.292 272.207 339.123C272.555 337.928 272.729 336.46 272.729 334.717C272.729 333.025 272.555 331.606 272.207 330.461C271.883 329.316 271.41 328.445 270.788 327.848C270.166 327.251 269.432 326.952 268.585 326.952C267.739 326.952 267.005 327.251 266.383 327.848C265.761 328.445 265.275 329.316 264.927 330.461C264.603 331.606 264.441 333.025 264.441 334.717C264.441 336.46 264.603 337.928 264.927 339.123C265.275 340.292 265.761 341.188 266.383 341.811C267.005 342.408 267.739 342.707 268.585 342.707ZM290.971 347.448C289.03 347.448 287.325 346.963 285.856 345.992C284.388 345.021 283.243 343.603 282.422 341.736C281.6 339.844 281.19 337.505 281.19 334.717C281.19 332.004 281.6 329.727 282.422 327.885C283.243 326.019 284.388 324.612 285.856 323.667C287.325 322.696 289.03 322.211 290.971 322.211C292.912 322.211 294.617 322.696 296.086 323.667C297.554 324.612 298.699 326.019 299.52 327.885C300.342 329.727 300.752 332.004 300.752 334.717C300.752 337.505 300.342 339.844 299.52 341.736C298.699 343.603 297.554 345.021 296.086 345.992C294.617 346.963 292.912 347.448 290.971 347.448ZM290.971 342.707C291.817 342.707 292.551 342.408 293.174 341.811C293.796 341.188 294.269 340.292 294.592 339.123C294.941 337.928 295.115 336.46 295.115 334.717C295.115 333.025 294.941 331.606 294.592 330.461C294.269 329.316 293.796 328.445 293.174 327.848C292.551 327.251 291.817 326.952 290.971 326.952C290.125 326.952 289.39 327.251 288.768 327.848C288.146 328.445 287.661 329.316 287.312 330.461C286.989 331.606 286.827 333.025 286.827 334.717C286.827 336.46 286.989 337.928 287.312 339.123C287.661 340.292 288.146 341.188 288.768 341.811C289.39 342.408 290.125 342.707 290.971 342.707ZM310.594 347V327.288H303.314V322.659H323.399V327.288H316.119V347H310.594ZM335.667 347.448C334.024 347.448 332.394 347.149 330.776 346.552C329.183 345.955 327.727 345.084 326.408 343.939L329.582 340.168C330.503 340.915 331.511 341.524 332.606 341.997C333.726 342.47 334.871 342.707 336.04 342.707C337.21 342.707 338.069 342.508 338.616 342.109C339.189 341.711 339.475 341.201 339.475 340.579C339.475 340.006 339.326 339.558 339.027 339.235C338.728 338.886 338.293 338.588 337.72 338.339C337.148 338.065 336.476 337.766 335.704 337.443L332.568 336.099C331.672 335.75 330.826 335.29 330.03 334.717C329.233 334.12 328.586 333.398 328.088 332.552C327.615 331.681 327.379 330.648 327.379 329.453C327.379 328.109 327.752 326.902 328.499 325.832C329.271 324.737 330.316 323.866 331.635 323.219C332.979 322.547 334.535 322.211 336.302 322.211C337.77 322.211 339.214 322.484 340.632 323.032C342.051 323.58 343.308 324.376 344.403 325.421L341.603 328.893C340.757 328.271 339.911 327.798 339.064 327.475C338.218 327.126 337.198 326.952 336.003 326.952C335.107 326.952 334.373 327.139 333.8 327.512C333.228 327.885 332.942 328.433 332.942 329.155C332.942 329.628 333.116 330.026 333.464 330.349C333.813 330.673 334.286 330.959 334.883 331.208C335.48 331.457 336.165 331.731 336.936 332.029L339.886 333.299C340.981 333.697 341.914 334.195 342.686 334.792C343.457 335.364 344.055 336.074 344.478 336.92C344.901 337.766 345.112 338.762 345.112 339.907C345.112 341.251 344.739 342.495 343.992 343.64C343.271 344.785 342.2 345.706 340.782 346.403C339.388 347.1 337.683 347.448 335.667 347.448ZM355.364 347V327.288H348.084V322.659H368.17V327.288H360.89V347H355.364ZM371.926 347V322.659H380.55C382.267 322.659 383.835 322.895 385.254 323.368C386.673 323.816 387.805 324.6 388.651 325.72C389.522 326.815 389.958 328.321 389.958 330.237C389.958 332.104 389.522 333.622 388.651 334.792C387.805 335.962 386.673 336.833 385.254 337.405C383.835 337.953 382.267 338.227 380.55 338.227H377.414V347H371.926ZM377.414 333.859H380.102C381.545 333.859 382.641 333.56 383.387 332.963C384.159 332.34 384.545 331.432 384.545 330.237C384.545 329.043 384.159 328.209 383.387 327.736C382.641 327.263 381.545 327.027 380.102 327.027H377.414V333.859ZM379.542 336.808L383.35 333.261L391.115 347H384.955L379.542 336.808ZM392.034 347L399.613 322.659H406.183L413.762 347H407.938L404.802 334.68C404.503 333.46 404.18 332.166 403.831 330.797C403.483 329.428 403.159 328.109 402.861 326.84H402.711C402.413 328.109 402.101 329.428 401.778 330.797C401.454 332.166 401.131 333.46 400.807 334.68L397.634 347H392.034ZM397.037 341.213V336.92H408.685V341.213H397.037ZM416.883 347V322.659H425.507C427.274 322.659 428.867 322.908 430.286 323.405C431.73 323.878 432.874 324.687 433.721 325.832C434.592 326.977 435.027 328.532 435.027 330.499C435.027 332.39 434.592 333.946 433.721 335.165C432.85 336.385 431.692 337.293 430.249 337.891C428.805 338.463 427.225 338.749 425.507 338.749H422.371V347H416.883ZM422.371 334.381H425.171C426.69 334.381 427.81 334.045 428.531 333.373C429.278 332.701 429.651 331.743 429.651 330.499C429.651 329.204 429.266 328.308 428.494 327.811C427.747 327.288 426.64 327.027 425.171 327.027H422.371V334.381Z" fill="#08FDD8"/>
<path d="M54.928 339V328.568H57.392L58.416 332.264L58.768 333.704H58.832L59.184 332.264L60.208 328.568H62.672V339H60.688V335.768C60.688 335.48 60.6987 335.123 60.72 334.696C60.7413 334.259 60.768 333.805 60.8 333.336C60.832 332.867 60.864 332.419 60.896 331.992C60.9387 331.565 60.9707 331.213 60.992 330.936H60.944L60.144 333.72L59.344 336.232H58.192L57.376 333.72L56.624 330.936H56.576C56.5973 331.213 56.624 331.565 56.656 331.992C56.6987 332.419 56.736 332.867 56.768 333.336C56.8 333.805 56.8267 334.259 56.848 334.696C56.8693 335.123 56.88 335.48 56.88 335.768V339H54.928ZM63.7378 339L66.9858 328.568H69.8018L73.0498 339H70.5538L69.2098 333.72C69.0818 333.197 68.9431 332.643 68.7938 332.056C68.6444 331.469 68.5058 330.904 68.3778 330.36H68.3138C68.1858 330.904 68.0524 331.469 67.9138 332.056C67.7751 332.643 67.6364 333.197 67.4978 333.72L66.1378 339H63.7378ZM65.8818 336.52V334.68H70.8738V336.52H65.8818ZM76.8035 339V330.552H73.6835V328.568H82.2915V330.552H79.1715V339H76.8035ZM84.2533 339V328.568H91.1653V330.552H86.6213V332.648H90.4773V334.616H86.6213V337.016H91.3253V339H84.2533ZM93.495 339V328.568H97.191C97.927 328.568 98.599 328.669 99.207 328.872C99.815 329.064 100.3 329.4 100.663 329.88C101.036 330.349 101.223 330.995 101.223 331.816C101.223 332.616 101.036 333.267 100.663 333.768C100.3 334.269 99.815 334.643 99.207 334.888C98.599 335.123 97.927 335.24 97.191 335.24H95.847V339H93.495ZM95.847 333.368H96.999C97.6177 333.368 98.087 333.24 98.407 332.984C98.7377 332.717 98.903 332.328 98.903 331.816C98.903 331.304 98.7377 330.947 98.407 330.744C98.087 330.541 97.6177 330.44 96.999 330.44H95.847V333.368ZM96.759 334.632L98.391 333.112L101.719 339H99.079L96.759 334.632ZM103.153 339V337.016H105.585V330.552H103.153V328.568H110.385V330.552H107.953V337.016H110.385V339H103.153ZM111.707 339L114.955 328.568H117.771L121.019 339H118.523L117.179 333.72C117.051 333.197 116.912 332.643 116.763 332.056C116.613 331.469 116.475 330.904 116.347 330.36H116.283C116.155 330.904 116.021 331.469 115.883 332.056C115.744 332.643 115.605 333.197 115.467 333.72L114.107 339H111.707ZM113.851 336.52V334.68H118.843V336.52H113.851ZM122.868 339V328.568H125.22V337.016H129.86V339H122.868ZM145.176 339.192C144.536 339.192 143.976 339.101 143.496 338.92C143.026 338.728 142.632 338.456 142.312 338.104C142.002 337.741 141.768 337.304 141.608 336.792C141.448 336.269 141.368 335.667 141.368 334.984V328.568H143.72V335.224C143.72 335.64 143.773 335.992 143.88 336.28C143.986 336.568 144.146 336.787 144.36 336.936C144.573 337.085 144.845 337.16 145.176 337.16C145.506 337.16 145.778 337.085 145.992 336.936C146.216 336.787 146.381 336.568 146.488 336.28C146.594 335.992 146.648 335.64 146.648 335.224V328.568H148.92V334.984C148.92 335.667 148.845 336.269 148.696 336.792C148.546 337.304 148.312 337.741 147.992 338.104C147.682 338.456 147.293 338.728 146.824 338.92C146.354 339.101 145.805 339.192 145.176 339.192ZM151.122 339V337.016H153.554V330.552H151.122V328.568H158.354V330.552H155.922V337.016H158.354V339H151.122Z" fill="#08FDD8"/>
<path d="M188.184 147L186.096 131.352H189.768L190.248 139.68C190.248 140.128 190.256 140.568 190.272 141C190.288 141.416 190.296 141.84 190.296 142.272C190.312 142.688 190.32 143.136 190.32 143.616H190.416C190.48 143.136 190.552 142.688 190.632 142.272C190.728 141.84 190.824 141.408 190.92 140.976C191.016 140.544 191.104 140.112 191.184 139.68L192.24 135.312H194.496L195.48 139.68C195.576 140.112 195.664 140.536 195.744 140.952C195.824 141.368 195.912 141.8 196.008 142.248C196.104 142.68 196.184 143.136 196.248 143.616H196.344C196.36 143.136 196.368 142.68 196.368 142.248C196.384 141.8 196.392 141.368 196.392 140.952C196.408 140.536 196.424 140.112 196.44 139.68L196.872 131.352H200.304L198.384 147H194.592L193.68 142.152C193.584 141.656 193.496 141.152 193.416 140.64C193.336 140.128 193.28 139.64 193.248 139.176H193.176C193.128 139.64 193.072 140.128 193.008 140.64C192.944 141.152 192.864 141.656 192.768 142.152L191.856 147H188.184ZM208.311 147.288C207.079 147.288 205.959 147.048 204.951 146.568C203.959 146.072 203.167 145.36 202.575 144.432C201.999 143.488 201.711 142.36 201.711 141.048C201.711 139.752 202.007 138.64 202.599 137.712C203.191 136.768 203.959 136.048 204.903 135.552C205.847 135.056 206.847 134.808 207.903 134.808C209.135 134.808 210.167 135.064 210.999 135.576C211.831 136.072 212.455 136.752 212.871 137.616C213.303 138.464 213.519 139.432 213.519 140.52C213.519 140.84 213.495 141.152 213.447 141.456C213.415 141.744 213.383 141.96 213.351 142.104H204.327V139.728H210.975L210.423 140.4C210.423 139.44 210.215 138.72 209.799 138.24C209.399 137.744 208.807 137.496 208.023 137.496C207.447 137.496 206.943 137.624 206.511 137.88C206.079 138.136 205.743 138.528 205.503 139.056C205.263 139.584 205.143 140.248 205.143 141.048C205.143 141.864 205.287 142.536 205.575 143.064C205.863 143.576 206.279 143.96 206.823 144.216C207.367 144.472 208.023 144.6 208.791 144.6C209.335 144.6 209.847 144.528 210.327 144.384C210.823 144.24 211.335 144.032 211.863 143.76L213.039 145.896C212.351 146.328 211.591 146.672 210.759 146.928C209.927 147.168 209.111 147.288 208.311 147.288ZM222.893 147.288C222.349 147.288 221.789 147.152 221.213 146.88C220.653 146.608 220.133 146.216 219.653 145.704H219.557L219.269 147H216.509V130.176H220.037V134.304L219.917 136.176H219.989C220.453 135.744 220.965 135.408 221.525 135.168C222.101 134.928 222.677 134.808 223.253 134.808C224.261 134.808 225.117 135.056 225.821 135.552C226.541 136.048 227.093 136.752 227.477 137.664C227.861 138.56 228.053 139.616 228.053 140.832C228.053 142.192 227.805 143.36 227.309 144.336C226.829 145.296 226.197 146.032 225.413 146.544C224.629 147.04 223.789 147.288 222.893 147.288ZM222.101 144.408C222.533 144.408 222.925 144.288 223.277 144.048C223.629 143.808 223.909 143.432 224.117 142.92C224.325 142.392 224.429 141.72 224.429 140.904C224.429 140.184 224.349 139.592 224.189 139.128C224.029 138.648 223.789 138.288 223.469 138.048C223.165 137.808 222.757 137.688 222.245 137.688C221.861 137.688 221.485 137.776 221.117 137.952C220.765 138.112 220.405 138.392 220.037 138.792V143.616C220.373 143.888 220.717 144.088 221.069 144.216C221.437 144.344 221.781 144.408 222.101 144.408ZM245.363 147V131.352H250.907C252.043 131.352 253.067 131.512 253.979 131.832C254.907 132.136 255.643 132.656 256.187 133.392C256.747 134.128 257.027 135.128 257.027 136.392C257.027 137.608 256.747 138.608 256.187 139.392C255.627 140.176 254.883 140.76 253.955 141.144C253.027 141.512 252.011 141.696 250.907 141.696H248.891V147H245.363ZM248.891 138.888H250.691C251.667 138.888 252.387 138.672 252.851 138.24C253.331 137.808 253.571 137.192 253.571 136.392C253.571 135.56 253.323 134.984 252.827 134.664C252.347 134.328 251.635 134.16 250.691 134.16H248.891V138.888ZM265.873 147.288C264.641 147.288 263.521 147.048 262.513 146.568C261.521 146.072 260.729 145.36 260.137 144.432C259.561 143.488 259.273 142.36 259.273 141.048C259.273 139.752 259.569 138.64 260.161 137.712C260.753 136.768 261.521 136.048 262.465 135.552C263.409 135.056 264.409 134.808 265.465 134.808C266.697 134.808 267.729 135.064 268.561 135.576C269.393 136.072 270.017 136.752 270.433 137.616C270.865 138.464 271.081 139.432 271.081 140.52C271.081 140.84 271.057 141.152 271.009 141.456C270.977 141.744 270.945 141.96 270.913 142.104H261.889V139.728H268.537L267.985 140.4C267.985 139.44 267.777 138.72 267.361 138.24C266.961 137.744 266.369 137.496 265.585 137.496C265.009 137.496 264.505 137.624 264.073 137.88C263.641 138.136 263.305 138.528 263.065 139.056C262.825 139.584 262.705 140.248 262.705 141.048C262.705 141.864 262.849 142.536 263.137 143.064C263.425 143.576 263.841 143.96 264.385 144.216C264.929 144.472 265.585 144.6 266.353 144.6C266.897 144.6 267.409 144.528 267.889 144.384C268.385 144.24 268.897 144.032 269.425 143.76L270.601 145.896C269.913 146.328 269.153 146.672 268.321 146.928C267.489 147.168 266.673 147.288 265.873 147.288ZM275.128 147V135.096H278.008L278.296 137.688H278.368C278.96 136.712 279.672 135.992 280.504 135.528C281.352 135.048 282.248 134.808 283.192 134.808C283.72 134.808 284.144 134.848 284.464 134.928C284.8 135.008 285.144 135.128 285.496 135.288L284.776 138.24C284.408 138.128 284.072 138.048 283.768 138C283.48 137.936 283.112 137.904 282.664 137.904C281.928 137.904 281.2 138.12 280.48 138.552C279.776 138.984 279.168 139.736 278.656 140.808V147H275.128ZM291.846 147V134.784C291.846 133.872 292.03 133.048 292.398 132.312C292.782 131.56 293.358 130.968 294.126 130.536C294.91 130.104 295.926 129.888 297.174 129.888C297.862 129.888 298.51 129.96 299.118 130.104C299.726 130.232 300.278 130.376 300.774 130.536L300.102 133.128C299.718 132.984 299.318 132.872 298.902 132.792C298.502 132.712 298.07 132.672 297.606 132.672C296.854 132.672 296.294 132.84 295.926 133.176C295.558 133.512 295.374 134.04 295.374 134.76V147H291.846ZM288.702 137.856V135.24L291.966 135.096H299.478V137.856H288.702ZM308.325 147.288C307.285 147.288 306.301 147.048 305.373 146.568C304.445 146.072 303.693 145.36 303.117 144.432C302.541 143.488 302.253 142.36 302.253 141.048C302.253 139.736 302.541 138.616 303.117 137.688C303.693 136.744 304.445 136.032 305.373 135.552C306.301 135.056 307.285 134.808 308.325 134.808C309.365 134.808 310.349 135.056 311.277 135.552C312.205 136.032 312.957 136.744 313.533 137.688C314.109 138.616 314.397 139.736 314.397 141.048C314.397 142.36 314.109 143.488 313.533 144.432C312.957 145.36 312.205 146.072 311.277 146.568C310.349 147.048 309.365 147.288 308.325 147.288ZM308.325 144.432C308.869 144.432 309.317 144.296 309.669 144.024C310.037 143.752 310.309 143.36 310.485 142.848C310.677 142.336 310.773 141.736 310.773 141.048C310.773 140.36 310.677 139.76 310.485 139.248C310.309 138.736 310.037 138.344 309.669 138.072C309.317 137.8 308.869 137.664 308.325 137.664C307.781 137.664 307.325 137.8 306.957 138.072C306.605 138.344 306.333 138.736 306.141 139.248C305.965 139.76 305.877 140.36 305.877 141.048C305.877 141.736 305.965 142.336 306.141 142.848C306.333 143.36 306.605 143.752 306.957 144.024C307.325 144.296 307.781 144.432 308.325 144.432ZM318.3 147V135.096H321.18L321.468 137.688H321.54C322.132 136.712 322.844 135.992 323.676 135.528C324.524 135.048 325.42 134.808 326.364 134.808C326.892 134.808 327.316 134.848 327.636 134.928C327.972 135.008 328.316 135.128 328.668 135.288L327.948 138.24C327.58 138.128 327.244 138.048 326.94 138C326.652 137.936 326.284 137.904 325.836 137.904C325.1 137.904 324.372 138.12 323.652 138.552C322.948 138.984 322.34 139.736 321.828 140.808V147H318.3ZM330.746 147V135.096H333.41L333.65 136.56H333.746C333.97 136.08 334.282 135.672 334.682 135.336C335.082 134.984 335.626 134.808 336.314 134.808C336.826 134.808 337.266 134.976 337.634 135.312C338.002 135.632 338.25 136.112 338.378 136.752C338.602 136.208 338.922 135.752 339.338 135.384C339.77 135 340.33 134.808 341.018 134.808C341.866 134.808 342.522 135.152 342.986 135.84C343.45 136.528 343.682 137.464 343.682 138.648V147H340.322V138.888C340.322 138.168 340.106 137.808 339.674 137.808C339.45 137.808 339.25 137.904 339.074 138.096C338.914 138.272 338.754 138.56 338.594 138.96V147H335.834V138.888C335.834 138.52 335.778 138.248 335.666 138.072C335.554 137.896 335.386 137.808 335.162 137.808C334.938 137.808 334.746 137.904 334.586 138.096C334.426 138.272 334.266 138.56 334.106 138.96V147H330.746ZM349.673 147.288C348.873 147.288 348.177 147.128 347.585 146.808C347.009 146.488 346.561 146.056 346.241 145.512C345.921 144.968 345.761 144.36 345.761 143.688C345.761 142.36 346.361 141.344 347.561 140.64C348.777 139.936 350.793 139.504 353.609 139.344C353.561 138.976 353.441 138.664 353.249 138.408C353.057 138.152 352.777 137.96 352.409 137.832C352.057 137.688 351.609 137.616 351.065 137.616C350.681 137.616 350.297 137.664 349.913 137.76C349.529 137.84 349.129 137.968 348.713 138.144C348.313 138.304 347.889 138.496 347.441 138.72L346.193 136.416C346.737 136.096 347.305 135.816 347.897 135.576C348.505 135.336 349.129 135.152 349.769 135.024C350.425 134.88 351.089 134.808 351.761 134.808C352.881 134.808 353.841 135.008 354.641 135.408C355.441 135.792 356.057 136.384 356.489 137.184C356.921 137.968 357.137 138.968 357.137 140.184V147H354.257L353.993 145.656H353.897C353.305 146.104 352.649 146.488 351.929 146.808C351.209 147.128 350.457 147.288 349.673 147.288ZM350.801 144.552C351.329 144.552 351.825 144.448 352.289 144.24C352.753 144.016 353.193 143.744 353.609 143.424V141.456C352.441 141.52 351.529 141.64 350.873 141.816C350.233 141.992 349.785 142.216 349.529 142.488C349.273 142.76 349.145 143.072 349.145 143.424C349.145 143.664 349.209 143.872 349.337 144.048C349.481 144.224 349.673 144.352 349.913 144.432C350.169 144.512 350.465 144.552 350.801 144.552ZM360.416 147V135.096H363.296L363.56 136.68H363.656C364.168 136.168 364.752 135.728 365.408 135.36C366.08 134.992 366.864 134.808 367.76 134.808C369.104 134.808 370.088 135.24 370.712 136.104C371.336 136.968 371.648 138.152 371.648 139.656V147H368.12V140.112C368.12 139.312 367.984 138.728 367.712 138.36C367.456 137.992 367.008 137.808 366.368 137.808C365.888 137.808 365.464 137.92 365.096 138.144C364.744 138.352 364.36 138.656 363.944 139.056V147H360.416ZM381.31 147.288C380.062 147.288 378.934 147.048 377.926 146.568C376.934 146.072 376.142 145.36 375.55 144.432C374.974 143.488 374.686 142.36 374.686 141.048C374.686 139.736 375.006 138.616 375.646 137.688C376.286 136.744 377.126 136.032 378.166 135.552C379.222 135.056 380.358 134.808 381.574 134.808C382.518 134.808 383.374 134.96 384.142 135.264C384.91 135.552 385.542 135.936 386.038 136.416L384.406 138.6C383.942 138.28 383.494 138.048 383.062 137.904C382.646 137.744 382.214 137.664 381.766 137.664C381.094 137.664 380.494 137.8 379.966 138.072C379.438 138.344 379.03 138.736 378.742 139.248C378.454 139.76 378.31 140.36 378.31 141.048C378.31 141.736 378.446 142.336 378.718 142.848C379.006 143.36 379.398 143.752 379.894 144.024C380.406 144.296 380.99 144.432 381.646 144.432C382.27 144.432 382.838 144.32 383.35 144.096C383.878 143.872 384.358 143.608 384.79 143.304L386.206 145.536C385.502 146.128 384.71 146.568 383.83 146.856C382.966 147.144 382.126 147.288 381.31 147.288ZM395.389 147.288C394.157 147.288 393.037 147.048 392.029 146.568C391.037 146.072 390.245 145.36 389.653 144.432C389.077 143.488 388.789 142.36 388.789 141.048C388.789 139.752 389.085 138.64 389.677 137.712C390.269 136.768 391.037 136.048 391.981 135.552C392.925 135.056 393.925 134.808 394.981 134.808C396.213 134.808 397.245 135.064 398.077 135.576C398.909 136.072 399.533 136.752 399.949 137.616C400.381 138.464 400.597 139.432 400.597 140.52C400.597 140.84 400.573 141.152 400.525 141.456C400.493 141.744 400.461 141.96 400.429 142.104H391.405V139.728H398.053L397.501 140.4C397.501 139.44 397.293 138.72 396.877 138.24C396.477 137.744 395.885 137.496 395.101 137.496C394.525 137.496 394.021 137.624 393.589 137.88C393.157 138.136 392.821 138.528 392.581 139.056C392.341 139.584 392.221 140.248 392.221 141.048C392.221 141.864 392.365 142.536 392.653 143.064C392.941 143.576 393.357 143.96 393.901 144.216C394.445 144.472 395.101 144.6 395.869 144.6C396.413 144.6 396.925 144.528 397.405 144.384C397.901 144.24 398.413 144.032 398.941 143.76L400.117 145.896C399.429 146.328 398.669 146.672 397.837 146.928C397.005 147.168 396.189 147.288 395.389 147.288Z" fill="#08FDD8"/>
<path d="M64.776 384V381.024H68.424V371.328H64.776V368.352H75.624V371.328H71.976V381.024H75.624V384H64.776ZM78.2306 384V372.096H80.8946L81.1346 373.56H81.2306C81.4546 373.08 81.7666 372.672 82.1666 372.336C82.5666 371.984 83.1106 371.808 83.7986 371.808C84.3106 371.808 84.7506 371.976 85.1186 372.312C85.4866 372.632 85.7346 373.112 85.8626 373.752C86.0866 373.208 86.4066 372.752 86.8226 372.384C87.2546 372 87.8146 371.808 88.5026 371.808C89.3506 371.808 90.0066 372.152 90.4706 372.84C90.9346 373.528 91.1666 374.464 91.1666 375.648V384H87.8066V375.888C87.8066 375.168 87.5906 374.808 87.1586 374.808C86.9346 374.808 86.7346 374.904 86.5586 375.096C86.3986 375.272 86.2386 375.56 86.0786 375.96V384H83.3186V375.888C83.3186 375.52 83.2626 375.248 83.1506 375.072C83.0386 374.896 82.8706 374.808 82.6466 374.808C82.4226 374.808 82.2306 374.904 82.0706 375.096C81.9106 375.272 81.7506 375.56 81.5906 375.96V384H78.2306ZM93.5093 388.416V372.096H96.3893L96.6533 373.296H96.7253C97.2213 372.864 97.7733 372.512 98.3813 372.24C99.0053 371.952 99.6373 371.808 100.277 371.808C101.269 371.808 102.117 372.056 102.821 372.552C103.541 373.048 104.093 373.752 104.477 374.664C104.861 375.576 105.053 376.64 105.053 377.856C105.053 379.216 104.805 380.376 104.309 381.336C103.829 382.296 103.197 383.032 102.413 383.544C101.629 384.04 100.789 384.288 99.8933 384.288C99.3653 384.288 98.8453 384.176 98.3333 383.952C97.8373 383.728 97.3813 383.408 96.9653 382.992H96.8693L97.0373 384.936V388.416H93.5093ZM99.0773 381.408C99.5253 381.408 99.9253 381.288 100.277 381.048C100.629 380.808 100.909 380.432 101.117 379.92C101.325 379.392 101.429 378.72 101.429 377.904C101.429 377.184 101.349 376.592 101.189 376.128C101.029 375.648 100.789 375.288 100.469 375.048C100.165 374.808 99.7573 374.688 99.2453 374.688C98.8613 374.688 98.4852 374.776 98.1172 374.952C97.7653 375.112 97.4053 375.392 97.0373 375.792V380.616C97.3733 380.888 97.7173 381.088 98.0693 381.216C98.4373 381.344 98.7733 381.408 99.0773 381.408ZM115.652 384.288C114.164 384.288 113.036 383.84 112.268 382.944C111.5 382.048 111.116 380.848 111.116 379.344V369.96H107.396V367.2H114.644V379.488C114.644 380.224 114.844 380.736 115.244 381.024C115.644 381.296 116.084 381.432 116.564 381.432C116.852 381.432 117.14 381.4 117.428 381.336C117.732 381.272 118.068 381.176 118.436 381.048L119.204 383.64C118.596 383.832 118.036 383.984 117.524 384.096C117.028 384.224 116.404 384.288 115.652 384.288ZM128.483 384.288C127.251 384.288 126.131 384.048 125.123 383.568C124.131 383.072 123.339 382.36 122.747 381.432C122.171 380.488 121.883 379.36 121.883 378.048C121.883 376.752 122.179 375.64 122.771 374.712C123.363 373.768 124.131 373.048 125.075 372.552C126.019 372.056 127.019 371.808 128.075 371.808C129.307 371.808 130.339 372.064 131.171 372.576C132.003 373.072 132.627 373.752 133.043 374.616C133.475 375.464 133.691 376.432 133.691 377.52C133.691 377.84 133.667 378.152 133.619 378.456C133.587 378.744 133.555 378.96 133.523 379.104H124.499V376.728H131.147L130.595 377.4C130.595 376.44 130.387 375.72 129.971 375.24C129.571 374.744 128.979 374.496 128.195 374.496C127.619 374.496 127.115 374.624 126.683 374.88C126.251 375.136 125.915 375.528 125.675 376.056C125.435 376.584 125.315 377.248 125.315 378.048C125.315 378.864 125.459 379.536 125.747 380.064C126.035 380.576 126.451 380.96 126.995 381.216C127.539 381.472 128.195 381.6 128.963 381.6C129.507 381.6 130.019 381.528 130.499 381.384C130.995 381.24 131.507 381.032 132.035 380.76L133.211 382.896C132.523 383.328 131.763 383.672 130.931 383.928C130.099 384.168 129.283 384.288 128.483 384.288ZM135.793 384V372.096H138.457L138.697 373.56H138.793C139.017 373.08 139.329 372.672 139.729 372.336C140.129 371.984 140.673 371.808 141.361 371.808C141.873 371.808 142.313 371.976 142.681 372.312C143.049 372.632 143.297 373.112 143.425 373.752C143.649 373.208 143.969 372.752 144.385 372.384C144.817 372 145.377 371.808 146.065 371.808C146.913 371.808 147.569 372.152 148.033 372.84C148.497 373.528 148.729 374.464 148.729 375.648V384H145.369V375.888C145.369 375.168 145.153 374.808 144.721 374.808C144.497 374.808 144.297 374.904 144.121 375.096C143.961 375.272 143.801 375.56 143.641 375.96V384H140.881V375.888C140.881 375.52 140.825 375.248 140.713 375.072C140.601 374.896 140.433 374.808 140.209 374.808C139.985 374.808 139.793 374.904 139.633 375.096C139.473 375.272 139.313 375.56 139.153 375.96V384H135.793ZM157.264 384.288C156.032 384.288 154.912 384.048 153.904 383.568C152.912 383.072 152.12 382.36 151.528 381.432C150.952 380.488 150.664 379.36 150.664 378.048C150.664 376.752 150.96 375.64 151.552 374.712C152.144 373.768 152.912 373.048 153.856 372.552C154.8 372.056 155.8 371.808 156.856 371.808C158.088 371.808 159.12 372.064 159.952 372.576C160.784 373.072 161.408 373.752 161.824 374.616C162.256 375.464 162.472 376.432 162.472 377.52C162.472 377.84 162.448 378.152 162.4 378.456C162.368 378.744 162.336 378.96 162.304 379.104H153.28V376.728H159.928L159.376 377.4C159.376 376.44 159.168 375.72 158.752 375.24C158.352 374.744 157.76 374.496 156.976 374.496C156.4 374.496 155.896 374.624 155.464 374.88C155.032 375.136 154.696 375.528 154.456 376.056C154.216 376.584 154.096 377.248 154.096 378.048C154.096 378.864 154.24 379.536 154.528 380.064C154.816 380.576 155.232 380.96 155.776 381.216C156.32 381.472 156.976 381.6 157.744 381.6C158.288 381.6 158.8 381.528 159.28 381.384C159.776 381.24 160.288 381.032 160.816 380.76L161.992 382.896C161.304 383.328 160.544 383.672 159.712 383.928C158.88 384.168 158.064 384.288 157.264 384.288ZM165.462 384V372.096H168.342L168.606 373.68H168.702C169.214 373.168 169.798 372.728 170.454 372.36C171.126 371.992 171.91 371.808 172.806 371.808C174.15 371.808 175.134 372.24 175.758 373.104C176.382 373.968 176.694 375.152 176.694 376.656V384H173.166V377.112C173.166 376.312 173.03 375.728 172.758 375.36C172.502 374.992 172.054 374.808 171.414 374.808C170.934 374.808 170.51 374.92 170.142 375.144C169.79 375.352 169.406 375.656 168.99 376.056V384H165.462ZM187.437 384.288C186.173 384.288 185.165 384.072 184.413 383.64C183.677 383.192 183.141 382.576 182.805 381.792C182.469 381.008 182.301 380.096 182.301 379.056V374.856H179.325V372.24L182.469 372.096L182.925 368.448H185.829V372.096H190.869V374.856H185.829V379.032C185.829 379.624 185.917 380.104 186.093 380.472C186.269 380.84 186.541 381.112 186.909 381.288C187.277 381.448 187.749 381.528 188.325 381.528C188.789 381.528 189.213 381.488 189.597 381.408C189.981 381.328 190.349 381.224 190.701 381.096L191.325 383.64C190.797 383.8 190.213 383.944 189.573 384.072C188.949 384.216 188.237 384.288 187.437 384.288ZM199.188 384V374.856H194.388V372.096H202.716V384H199.188ZM200.796 370.224C200.124 370.224 199.564 370.032 199.116 369.648C198.668 369.248 198.444 368.728 198.444 368.088C198.444 367.432 198.668 366.904 199.116 366.504C199.564 366.088 200.124 365.88 200.796 365.88C201.484 365.88 202.044 366.088 202.476 366.504C202.924 366.904 203.148 367.432 203.148 368.088C203.148 368.728 202.924 369.248 202.476 369.648C202.044 370.032 201.484 370.224 200.796 370.224ZM208.634 384V372.096H211.514L211.778 373.68H211.874C212.386 373.168 212.97 372.728 213.626 372.36C214.298 371.992 215.082 371.808 215.978 371.808C217.322 371.808 218.306 372.24 218.93 373.104C219.554 373.968 219.866 375.152 219.866 376.656V384H216.338V377.112C216.338 376.312 216.202 375.728 215.93 375.36C215.674 374.992 215.226 374.808 214.586 374.808C214.106 374.808 213.682 374.92 213.314 375.144C212.962 375.352 212.578 375.656 212.162 376.056V384H208.634ZM227.945 389.064C226.905 389.064 225.977 388.952 225.161 388.728C224.361 388.52 223.721 388.192 223.241 387.744C222.777 387.296 222.545 386.72 222.545 386.016C222.545 385.536 222.697 385.096 223.001 384.696C223.321 384.296 223.785 383.944 224.393 383.64V383.544C224.057 383.32 223.769 383.048 223.529 382.728C223.305 382.408 223.193 382 223.193 381.504C223.193 381.104 223.321 380.704 223.577 380.304C223.849 379.904 224.193 379.56 224.609 379.272V379.176C224.177 378.888 223.809 378.48 223.505 377.952C223.201 377.424 223.049 376.816 223.049 376.128C223.049 375.168 223.281 374.368 223.745 373.728C224.225 373.088 224.849 372.608 225.617 372.288C226.401 371.968 227.241 371.808 228.137 371.808C228.873 371.808 229.529 371.904 230.105 372.096H234.929V374.688H232.529C232.673 374.864 232.793 375.096 232.889 375.384C233.001 375.656 233.057 375.944 233.057 376.248C233.057 377.16 232.833 377.912 232.385 378.504C231.953 379.08 231.369 379.512 230.633 379.8C229.897 380.088 229.065 380.232 228.137 380.232C227.913 380.232 227.657 380.216 227.369 380.184C227.081 380.136 226.793 380.072 226.505 379.992C226.313 380.12 226.177 380.248 226.097 380.376C226.017 380.504 225.977 380.672 225.977 380.88C225.977 381.184 226.137 381.408 226.457 381.552C226.793 381.696 227.305 381.768 227.993 381.768H230.201C231.769 381.768 232.961 382 233.777 382.464C234.609 382.928 235.025 383.696 235.025 384.768C235.025 385.6 234.737 386.336 234.161 386.976C233.585 387.632 232.761 388.144 231.689 388.512C230.633 388.88 229.385 389.064 227.945 389.064ZM228.137 378.096C228.473 378.096 228.777 378.024 229.049 377.88C229.321 377.736 229.537 377.52 229.697 377.232C229.857 376.928 229.937 376.56 229.937 376.128C229.937 375.712 229.857 375.36 229.697 375.072C229.537 374.784 229.321 374.568 229.049 374.424C228.777 374.264 228.473 374.184 228.137 374.184C227.817 374.184 227.521 374.264 227.249 374.424C226.977 374.568 226.761 374.784 226.601 375.072C226.441 375.36 226.361 375.712 226.361 376.128C226.361 376.56 226.441 376.928 226.601 377.232C226.761 377.52 226.977 377.736 227.249 377.88C227.521 378.024 227.817 378.096 228.137 378.096ZM228.449 386.832C229.089 386.832 229.649 386.768 230.129 386.64C230.609 386.512 230.985 386.336 231.257 386.112C231.529 385.904 231.665 385.664 231.665 385.392C231.665 384.992 231.489 384.736 231.137 384.624C230.785 384.528 230.265 384.48 229.577 384.48H228.089C227.657 384.48 227.297 384.464 227.009 384.432C226.737 384.4 226.489 384.36 226.265 384.312C225.961 384.504 225.745 384.688 225.617 384.864C225.489 385.056 225.425 385.264 225.425 385.488C225.425 385.92 225.697 386.248 226.241 386.472C226.785 386.712 227.521 386.832 228.449 386.832ZM251.758 384V368.352H256.078C257.598 368.352 258.918 368.624 260.038 369.168C261.174 369.712 262.054 370.56 262.678 371.712C263.302 372.848 263.614 374.312 263.614 376.104C263.614 377.896 263.302 379.376 262.678 380.544C262.07 381.712 261.214 382.584 260.11 383.16C259.006 383.72 257.734 384 256.294 384H251.758ZM255.31 381.144H255.886C256.718 381.144 257.438 380.984 258.046 380.664C258.654 380.344 259.126 379.816 259.462 379.08C259.814 378.344 259.99 377.352 259.99 376.104C259.99 374.856 259.814 373.88 259.462 373.176C259.126 372.456 258.654 371.952 258.046 371.664C257.438 371.36 256.718 371.208 255.886 371.208H255.31V381.144ZM272.389 384.288C271.157 384.288 270.037 384.048 269.029 383.568C268.037 383.072 267.245 382.36 266.653 381.432C266.077 380.488 265.789 379.36 265.789 378.048C265.789 376.752 266.085 375.64 266.677 374.712C267.269 373.768 268.037 373.048 268.981 372.552C269.925 372.056 270.925 371.808 271.981 371.808C273.213 371.808 274.245 372.064 275.077 372.576C275.909 373.072 276.533 373.752 276.949 374.616C277.381 375.464 277.597 376.432 277.597 377.52C277.597 377.84 277.573 378.152 277.525 378.456C277.493 378.744 277.461 378.96 277.429 379.104H268.405V376.728H275.053L274.501 377.4C274.501 376.44 274.293 375.72 273.877 375.24C273.477 374.744 272.885 374.496 272.101 374.496C271.525 374.496 271.021 374.624 270.589 374.88C270.157 375.136 269.821 375.528 269.581 376.056C269.341 376.584 269.221 377.248 269.221 378.048C269.221 378.864 269.365 379.536 269.653 380.064C269.941 380.576 270.357 380.96 270.901 381.216C271.445 381.472 272.101 381.6 272.869 381.6C273.413 381.6 273.925 381.528 274.405 381.384C274.901 381.24 275.413 381.032 275.941 380.76L277.117 382.896C276.429 383.328 275.669 383.672 274.837 383.928C274.005 384.168 273.189 384.288 272.389 384.288ZM285.963 384.288C284.907 384.288 283.859 384.112 282.819 383.76C281.779 383.392 280.883 382.96 280.131 382.464L281.643 380.256C282.363 380.72 283.123 381.072 283.923 381.312C284.739 381.552 285.579 381.672 286.443 381.672C287.099 381.672 287.579 381.576 287.883 381.384C288.187 381.176 288.339 380.936 288.339 380.664C288.339 380.488 288.291 380.344 288.195 380.232C288.115 380.104 287.963 379.992 287.739 379.896C287.531 379.784 287.235 379.68 286.851 379.584C286.483 379.488 286.003 379.376 285.411 379.248C283.795 378.896 282.635 378.416 281.931 377.808C281.227 377.2 280.875 376.44 280.875 375.528C280.875 374.408 281.363 373.512 282.339 372.84C283.315 372.152 284.651 371.808 286.347 371.808C287.419 371.808 288.387 371.984 289.251 372.336C290.131 372.672 290.883 373.04 291.507 373.44L289.923 375.552C289.331 375.184 288.699 374.904 288.027 374.712C287.355 374.52 286.691 374.424 286.035 374.424C285.667 374.424 285.363 374.464 285.123 374.544C284.883 374.608 284.699 374.72 284.571 374.88C284.443 375.024 284.379 375.184 284.379 375.36C284.379 375.68 284.587 375.92 285.003 376.08C285.419 376.224 286.131 376.408 287.139 376.632C288.355 376.904 289.307 377.216 289.995 377.568C290.683 377.92 291.155 378.328 291.411 378.792C291.683 379.24 291.819 379.792 291.819 380.448C291.819 381.168 291.595 381.816 291.147 382.392C290.715 382.968 290.059 383.432 289.179 383.784C288.315 384.12 287.243 384.288 285.963 384.288ZM299.922 384V374.856H295.122V372.096H303.45V384H299.922ZM301.53 370.224C300.858 370.224 300.298 370.032 299.85 369.648C299.402 369.248 299.178 368.728 299.178 368.088C299.178 367.432 299.402 366.904 299.85 366.504C300.298 366.088 300.858 365.88 301.53 365.88C302.218 365.88 302.778 366.088 303.21 366.504C303.658 366.904 303.882 367.432 303.882 368.088C303.882 368.728 303.658 369.248 303.21 369.648C302.778 370.032 302.218 370.224 301.53 370.224ZM314.289 389.064C313.249 389.064 312.321 388.952 311.505 388.728C310.705 388.52 310.065 388.192 309.585 387.744C309.121 387.296 308.889 386.72 308.889 386.016C308.889 385.536 309.041 385.096 309.345 384.696C309.665 384.296 310.129 383.944 310.737 383.64V383.544C310.401 383.32 310.113 383.048 309.873 382.728C309.649 382.408 309.537 382 309.537 381.504C309.537 381.104 309.665 380.704 309.921 380.304C310.193 379.904 310.537 379.56 310.953 379.272V379.176C310.521 378.888 310.153 378.48 309.849 377.952C309.545 377.424 309.393 376.816 309.393 376.128C309.393 375.168 309.625 374.368 310.089 373.728C310.569 373.088 311.193 372.608 311.961 372.288C312.745 371.968 313.585 371.808 314.481 371.808C315.217 371.808 315.873 371.904 316.449 372.096H321.273V374.688H318.873C319.017 374.864 319.137 375.096 319.233 375.384C319.345 375.656 319.401 375.944 319.401 376.248C319.401 377.16 319.177 377.912 318.729 378.504C318.297 379.08 317.713 379.512 316.977 379.8C316.241 380.088 315.409 380.232 314.481 380.232C314.257 380.232 314.001 380.216 313.713 380.184C313.425 380.136 313.137 380.072 312.849 379.992C312.657 380.12 312.521 380.248 312.441 380.376C312.361 380.504 312.321 380.672 312.321 380.88C312.321 381.184 312.481 381.408 312.801 381.552C313.137 381.696 313.649 381.768 314.337 381.768H316.545C318.113 381.768 319.305 382 320.121 382.464C320.953 382.928 321.369 383.696 321.369 384.768C321.369 385.6 321.081 386.336 320.505 386.976C319.929 387.632 319.105 388.144 318.033 388.512C316.977 388.88 315.729 389.064 314.289 389.064ZM314.481 378.096C314.817 378.096 315.121 378.024 315.393 377.88C315.665 377.736 315.881 377.52 316.041 377.232C316.201 376.928 316.281 376.56 316.281 376.128C316.281 375.712 316.201 375.36 316.041 375.072C315.881 374.784 315.665 374.568 315.393 374.424C315.121 374.264 314.817 374.184 314.481 374.184C314.161 374.184 313.865 374.264 313.593 374.424C313.321 374.568 313.105 374.784 312.945 375.072C312.785 375.36 312.705 375.712 312.705 376.128C312.705 376.56 312.785 376.928 312.945 377.232C313.105 377.52 313.321 377.736 313.593 377.88C313.865 378.024 314.161 378.096 314.481 378.096ZM314.793 386.832C315.433 386.832 315.993 386.768 316.473 386.64C316.953 386.512 317.329 386.336 317.601 386.112C317.873 385.904 318.009 385.664 318.009 385.392C318.009 384.992 317.833 384.736 317.481 384.624C317.129 384.528 316.609 384.48 315.921 384.48H314.433C314.001 384.48 313.641 384.464 313.353 384.432C313.081 384.4 312.833 384.36 312.609 384.312C312.305 384.504 312.089 384.688 311.961 384.864C311.833 385.056 311.769 385.264 311.769 385.488C311.769 385.92 312.041 386.248 312.585 386.472C313.129 386.712 313.865 386.832 314.793 386.832ZM323.759 384V372.096H326.639L326.903 373.68H326.999C327.511 373.168 328.095 372.728 328.751 372.36C329.423 371.992 330.207 371.808 331.103 371.808C332.447 371.808 333.431 372.24 334.055 373.104C334.679 373.968 334.991 375.152 334.991 376.656V384H331.463V377.112C331.463 376.312 331.327 375.728 331.055 375.36C330.799 374.992 330.351 374.808 329.711 374.808C329.231 374.808 328.807 374.92 328.439 375.144C328.087 375.352 327.703 375.656 327.287 376.056V384H323.759Z" fill="#08FDD8"/>
<path d="M184.042 50.0421V24.8105H189.088V34.1673H200.443V24.8105H205.489V50.0421H200.443V39.2136H189.088V50.0421H184.042ZM217.264 50.0421V29.8569H209.904V24.8105H229.669V29.8569H222.31V50.0421H217.264ZM234.085 50.0421V28.385C234.085 27.3337 234.418 26.4751 235.083 25.8093C235.749 25.1435 236.608 24.8105 237.659 24.8105H258.685C259.737 24.8105 260.595 25.1435 261.261 25.8093C261.927 26.4751 262.26 27.3337 262.26 28.385V50.0421H257.214V29.8569H250.695V45.6266H245.649V29.8569H239.131V50.0421H234.085ZM268.358 50.0421V24.8105H273.404V44.9958H284.968V50.0421H268.358Z" fill="#08FDD8"/>
<path d="M279.368 180.192C278.792 180.192 278.189 180.064 277.56 179.808C276.941 179.552 276.403 179.104 275.944 178.464L277.304 177.008C277.603 177.381 277.923 177.669 278.264 177.872C278.605 178.064 278.947 178.16 279.288 178.16C279.821 178.16 280.221 178.021 280.488 177.744C280.765 177.467 280.904 176.971 280.904 176.256V171.536H276.824V169.568H283.256V176.448C283.256 177.131 283.128 177.755 282.872 178.32C282.627 178.885 282.221 179.339 281.656 179.68C281.101 180.021 280.339 180.192 279.368 180.192ZM285.778 180V178.016H288.21V171.552H285.778V169.568H293.01V171.552H290.578V178.016H293.01V180H285.778ZM295.308 180V169.568H299.004C299.74 169.568 300.412 169.669 301.02 169.872C301.628 170.064 302.113 170.4 302.476 170.88C302.849 171.349 303.036 171.995 303.036 172.816C303.036 173.616 302.849 174.267 302.476 174.768C302.113 175.269 301.628 175.643 301.02 175.888C300.412 176.123 299.74 176.24 299.004 176.24H297.66V180H295.308ZM297.66 174.368H298.812C299.43 174.368 299.9 174.24 300.22 173.984C300.55 173.717 300.716 173.328 300.716 172.816C300.716 172.304 300.55 171.947 300.22 171.744C299.9 171.541 299.43 171.44 298.812 171.44H297.66V174.368ZM298.572 175.632L300.204 174.112L303.532 180H300.892L298.572 175.632ZM303.925 180L307.173 169.568H309.989L313.237 180H310.741L309.397 174.72C309.269 174.197 309.131 173.643 308.981 173.056C308.832 172.469 308.693 171.904 308.565 171.36H308.501C308.373 171.904 308.24 172.469 308.101 173.056C307.963 173.643 307.824 174.197 307.685 174.72L306.325 180H303.925ZM306.069 177.52V175.68H311.061V177.52H306.069Z" fill="#08FDD8"/>
<path d="M350.768 207.192C350.064 207.192 349.365 207.064 348.672 206.808C347.989 206.552 347.365 206.179 346.8 205.688L348.16 204.072C348.555 204.392 348.987 204.653 349.456 204.856C349.936 205.059 350.427 205.16 350.928 205.16C351.429 205.16 351.797 205.075 352.032 204.904C352.277 204.733 352.4 204.515 352.4 204.248C352.4 204.003 352.336 203.811 352.208 203.672C352.08 203.523 351.893 203.395 351.648 203.288C351.403 203.171 351.115 203.043 350.784 202.904L349.44 202.328C349.056 202.179 348.693 201.981 348.352 201.736C348.011 201.48 347.733 201.171 347.52 200.808C347.317 200.435 347.216 199.992 347.216 199.48C347.216 198.904 347.376 198.387 347.696 197.928C348.027 197.459 348.475 197.085 349.04 196.808C349.616 196.52 350.283 196.376 351.04 196.376C351.669 196.376 352.288 196.493 352.896 196.728C353.504 196.963 354.043 197.304 354.512 197.752L353.312 199.24C352.949 198.973 352.587 198.771 352.224 198.632C351.861 198.483 351.424 198.408 350.912 198.408C350.528 198.408 350.213 198.488 349.968 198.648C349.723 198.808 349.6 199.043 349.6 199.352C349.6 199.555 349.675 199.725 349.824 199.864C349.973 200.003 350.176 200.125 350.432 200.232C350.688 200.339 350.981 200.456 351.312 200.584L352.576 201.128C353.045 201.299 353.445 201.512 353.776 201.768C354.107 202.013 354.363 202.317 354.544 202.68C354.725 203.043 354.816 203.469 354.816 203.96C354.816 204.536 354.656 205.069 354.336 205.56C354.027 206.051 353.568 206.445 352.96 206.744C352.363 207.043 351.632 207.192 350.768 207.192ZM357.066 207V196.568H363.978V198.552H359.434V200.648H363.29V202.616H359.434V205.016H364.138V207H357.066ZM366.116 207V196.568H368.58L369.604 200.264L369.956 201.704H370.02L370.372 200.264L371.396 196.568H373.86V207H371.876V203.768C371.876 203.48 371.886 203.123 371.908 202.696C371.929 202.259 371.956 201.805 371.988 201.336C372.02 200.867 372.052 200.419 372.084 199.992C372.126 199.565 372.158 199.213 372.18 198.936H372.132L371.332 201.72L370.532 204.232H369.38L368.564 201.72L367.812 198.936H367.764C367.785 199.213 367.812 199.565 367.844 199.992C367.886 200.419 367.924 200.867 367.956 201.336C367.988 201.805 368.014 202.259 368.036 202.696C368.057 203.123 368.068 203.48 368.068 203.768V207H366.116ZM374.925 207L378.173 196.568H380.989L384.237 207H381.741L380.397 201.72C380.269 201.197 380.131 200.643 379.981 200.056C379.832 199.469 379.693 198.904 379.565 198.36H379.501C379.373 198.904 379.24 199.469 379.101 200.056C378.963 200.643 378.824 201.197 378.685 201.72L377.325 207H374.925ZM377.069 204.52V202.68H382.061V204.52H377.069ZM385.431 207V196.568H387.847L390.039 201.752L390.935 204.056H390.999C390.946 203.501 390.876 202.883 390.791 202.2C390.706 201.517 390.663 200.872 390.663 200.264V196.568H392.919V207H390.503L388.311 201.8L387.415 199.528H387.351C387.404 200.093 387.474 200.712 387.559 201.384C387.644 202.045 387.687 202.685 387.687 203.304V207H385.431ZM397.585 207V198.552H394.465V196.568H403.073V198.552H399.953V207H397.585ZM404.747 207V205.016H407.179V198.552H404.747V196.568H411.979V198.552H409.547V205.016H411.979V207H404.747ZM418.852 207.192C418.202 207.192 417.583 207.08 416.996 206.856C416.42 206.632 415.908 206.296 415.46 205.848C415.012 205.389 414.66 204.829 414.404 204.168C414.148 203.496 414.02 202.723 414.02 201.848C414.02 200.696 414.239 199.715 414.676 198.904C415.124 198.083 415.722 197.459 416.468 197.032C417.226 196.595 418.068 196.376 418.996 196.376C419.658 196.376 420.255 196.515 420.788 196.792C421.322 197.059 421.764 197.363 422.116 197.704L420.82 199.16C420.575 198.925 420.303 198.744 420.004 198.616C419.716 198.477 419.38 198.408 418.996 198.408C418.506 198.408 418.068 198.547 417.684 198.824C417.3 199.091 416.996 199.475 416.772 199.976C416.548 200.477 416.436 201.075 416.436 201.768C416.436 202.483 416.548 203.096 416.772 203.608C416.996 204.109 417.306 204.493 417.7 204.76C418.106 205.027 418.57 205.16 419.092 205.16C419.476 205.16 419.823 205.075 420.132 204.904C420.442 204.733 420.724 204.509 420.98 204.232L422.276 205.656C421.85 206.157 421.348 206.541 420.772 206.808C420.196 207.064 419.556 207.192 418.852 207.192ZM437.176 207.192C436.536 207.192 435.976 207.101 435.496 206.92C435.026 206.728 434.632 206.456 434.312 206.104C434.002 205.741 433.768 205.304 433.608 204.792C433.448 204.269 433.368 203.667 433.368 202.984V196.568H435.72V203.224C435.72 203.64 435.773 203.992 435.88 204.28C435.986 204.568 436.146 204.787 436.36 204.936C436.573 205.085 436.845 205.16 437.176 205.16C437.506 205.16 437.778 205.085 437.992 204.936C438.216 204.787 438.381 204.568 438.488 204.28C438.594 203.992 438.648 203.64 438.648 203.224V196.568H440.92V202.984C440.92 203.667 440.845 204.269 440.696 204.792C440.546 205.304 440.312 205.741 439.992 206.104C439.682 206.456 439.293 206.728 438.824 206.92C438.354 207.101 437.805 207.192 437.176 207.192ZM443.122 207V205.016H445.554V198.552H443.122V196.568H450.354V198.552H447.922V205.016H450.354V207H443.122Z" fill="#08FDD8"/>
<path d="M212.354 433.958C211.302 433.958 210.444 433.625 209.778 432.959C209.112 432.293 208.779 431.435 208.779 430.383V423.445H213.826V428.912H222.657V408.726H227.703V430.383C227.703 431.435 227.37 432.293 226.704 432.959C226.038 433.625 225.18 433.958 224.129 433.958H212.354ZM237.585 433.958C236.534 433.958 235.675 433.625 235.01 432.959C234.344 432.293 234.011 431.435 234.011 430.383V425.547H239.057V428.912H249.991V423.34H237.585C236.604 423.34 235.763 422.989 235.062 422.288C234.361 421.587 234.011 420.746 234.011 419.765V412.301C234.011 411.249 234.344 410.391 235.01 409.725C235.675 409.059 236.534 408.726 237.585 408.726H251.463C252.514 408.726 253.373 409.059 254.038 409.725C254.704 410.391 255.037 411.249 255.037 412.301V417.137H249.991V413.773H239.057V419.345H251.463C252.444 419.345 253.285 419.695 253.986 420.396C254.687 421.097 255.037 421.938 255.037 422.919V430.383C255.037 431.435 254.704 432.293 254.038 432.959C253.373 433.625 252.514 433.958 251.463 433.958H237.585Z" fill="#08FDD8"/>
</svg>
